<svg width="80" height="64" viewBox="0 0 80 64" fill="none" xmlns="http://www.w3.org/2000/svg">
<g clip-path="url(#clip0_2369_531)">
<path fill-rule="evenodd" clip-rule="evenodd" d="M59.7632 7.22069H63.7102C65.4161 7.34715 66.4754 8.5485 66.4754 10.3695C66.5869 13.3918 66.4754 16.5279 66.5869 19.5503C66.5869 20.2711 66.2635 20.5113 65.628 20.5113H57.6336C56.998 20.5113 56.7862 20.2711 56.5632 19.6641C54.7569 15.0737 51.6684 12.6457 47.1862 12.6457C42.8154 12.5319 39.6154 15.0737 37.8092 19.6641C37.5973 20.3849 37.274 20.5113 36.6384 20.5113H28.7555C28.0085 20.5113 27.7966 20.1446 27.7966 19.4238C27.897 16.5279 27.7966 13.5056 27.897 10.5971C27.897 8.5485 28.9674 7.20805 30.7736 7.20805C33.3381 7.20805 35.8914 7.09424 38.4447 7.20805C39.5151 7.33451 39.8384 6.84132 39.7269 5.75379C39.6154 4.90653 39.7269 4.05926 39.7269 3.09819C39.8384 1.28985 40.8977 0.075861 42.5032 0.075861C45.7032 -0.0505962 48.7917 -0.0505962 51.8803 0.075861C53.5862 0.075861 54.5451 1.28985 54.6454 3.212C54.7569 4.5398 54.1102 6.23433 54.9688 6.95513C55.7158 7.56213 57.2099 7.1954 58.2691 7.1954H59.7632V7.22069Z" fill="#9DB355"/>
<path fill-rule="evenodd" clip-rule="evenodd" d="M47.1862 40.5928H31.3088C28.8559 40.5928 27.897 39.5052 27.897 36.7232C27.7966 33.0939 27.897 29.3507 27.7966 25.595C27.7966 24.5074 28.1088 24.2672 29.0789 24.2672H35.7911C36.7499 24.2672 36.9618 24.381 37.1736 25.4685C37.7088 31.3993 42.0796 35.8633 47.1862 35.8633C52.2928 35.8633 56.7862 31.3867 57.3102 25.4685C57.4217 24.5074 57.5221 24.2672 58.2691 24.2672H65.628C66.2635 24.2672 66.5869 24.5074 66.5869 25.2282C66.4754 29.3381 66.5869 33.3341 66.4754 37.3175C66.4754 39.3661 65.4161 40.5801 63.4872 40.5801H47.1862V40.5928Z" fill="#9DB355"/>
<path fill-rule="evenodd" clip-rule="evenodd" d="M46.0153 29.591V25.5949H42.3916V22.8129H46.0153V18.8295H48.3568V22.8129H51.9805V25.5949H48.3568V29.591H46.0153Z" fill="#D2476A"/>
<path fill-rule="evenodd" clip-rule="evenodd" d="M79.9107 44.69C79.487 43.3622 77.5693 42.6414 75.4285 42.7552C74.8933 42.8816 74.2578 42.9954 73.7226 43.2357C71.0578 44.1968 57.5219 49.3942 57.4215 49.5206H57.0982L57.31 49.7609C58.8041 51.2152 59.6515 52.7832 59.2278 54.111C58.8041 55.932 56.563 57.0196 52.9393 57.3736C49.7393 57.7404 45.6919 57.3736 40.9978 56.2861C41.4215 56.2861 42.0682 56.2861 42.5923 56.3999C46.0041 56.3999 49.2041 56.3999 51.7574 56.1596C55.593 55.7929 57.5107 54.8318 57.7226 53.2638C57.8341 52.0498 57.2989 51.2025 55.9052 50.4817C54.5226 49.6345 51.4341 49.1539 48.5574 48.5469C46.5281 48.3067 44.6104 47.9399 43.2278 47.5858C38.5337 46.1316 33.7393 44.8038 28.1978 45.297C27.3393 45.4234 26.3804 45.5372 25.6334 45.6637C21.2626 46.511 17.1038 47.7123 12.733 49.1666H12.209L18.7093 59.8016C19.7686 59.5613 21.0508 59.1946 22.2215 59.1946C23.7156 58.9544 25.2097 59.0682 26.5923 59.1946C28.2982 59.5613 32.8808 60.6489 37.14 61.61C41.6111 62.6975 45.8815 63.5447 47.3644 63.9115C48.4348 64.0379 49.2822 64.0379 50.241 63.9115C52.3707 63.7977 54.6118 62.4572 56.7414 61.1294C57.3769 60.6489 58.0236 60.2822 58.6592 59.9154L77.9484 48.0664C80.078 46.6121 80.078 45.4108 79.8661 44.6773L79.9107 44.69Z" fill="#9DB355"/>
<path fill-rule="evenodd" clip-rule="evenodd" d="M0.401229 45.904H8.93085C9.35454 45.904 9.88973 46.2707 10.1016 46.7513L18.3079 60.0419C18.6312 60.5224 18.5197 60.8892 18.1964 60.8892H9.45489C9.13154 60.8892 8.59635 60.5224 8.28416 60.0419L0.189383 46.7513C-0.133962 46.2707 -0.022464 45.904 0.401229 45.904Z" fill="#D2476A"/>
<path fill-rule="evenodd" clip-rule="evenodd" d="M46.9742 6.01939C48.2564 6.01939 49.4271 6.01939 50.8097 6.14584C51.4452 6.14584 51.6682 5.90558 51.6682 5.05831V3.97078C51.7686 2.88325 51.4564 2.40271 50.386 2.40271C48.1449 2.51652 45.9149 2.40271 43.6738 2.40271C42.8264 2.40271 42.2912 2.64298 42.3916 3.73051V5.05831C42.2801 5.90558 42.6034 6.14584 43.3505 6.14584C44.5212 6.01939 45.6919 6.01939 46.9742 6.01939Z" fill="#FEFEFE"/>
</g>
<defs>
<clipPath id="clip0_2369_531">
<rect width="80" height="64" fill="white"/>
</clipPath>
</defs>
</svg>
