<svg width="72" height="64" viewBox="0 0 72 64" fill="none" xmlns="http://www.w3.org/2000/svg">
<g clip-path="url(#clip0_2316_306)">
<path fill-rule="evenodd" clip-rule="evenodd" d="M12.0352 38.7925C19.4229 46.8248 26.9109 54.7709 34.389 62.8032C35.5433 64.1402 36.4065 64.5499 37.7516 63.0081C40.1506 60.3235 42.65 57.7466 45.1393 55.0728C50.128 49.6065 55.0264 44.248 60.1054 38.7925H47.0565L44.2761 44.3558C44.0853 44.7655 43.6035 45.0782 43.1217 44.9704C42.65 44.9704 42.2585 44.6577 42.0678 44.151L40.0602 37.7574L38.2334 42.3935C38.0427 42.9111 37.4705 43.213 36.9887 43.213C36.4166 43.1159 36.0352 42.7062 35.9348 42.0809L34.2083 30.8464L32.2008 47.9569C32.1004 48.5714 31.6286 49.089 30.9461 49.089C30.3739 49.089 29.8921 48.6793 29.7917 48.0539L27.3927 34.7601L25.9574 38.0593C25.6663 38.469 25.2848 38.7817 24.803 38.7817H12.0452L12.0352 38.7925Z" fill="#9DB355"/>
<path fill-rule="evenodd" clip-rule="evenodd" d="M72.0001 18.9974C72.0001 10.2427 68.256 3.95699 62.113 1.38017C55.7792 -1.30447 49.9273 -0.0645738 44.9386 4.99203C42.3489 7.56885 39.9499 10.2427 37.5509 13.0352C36.4969 14.0702 35.8244 14.0702 34.7704 13.0352C32.2711 10.771 30.0728 8.19419 27.7642 5.61737C21.1494 -1.60635 11.2623 -1.8112 4.5471 5.19688C-1.68628 11.7953 -1.49556 22.7171 5.02891 29.7252L9.63618 34.5662H24.0302L26.8106 28.4853C27.0013 27.9678 27.5734 27.6659 28.0653 27.7629C28.5371 27.8707 29.0289 28.2804 29.1192 28.798L30.7453 38.178L32.8532 20.6578C32.8532 20.1403 33.4254 19.7306 34.0076 19.6335H34.108C34.6801 19.7306 35.1619 20.1403 35.2623 20.6578L37.5609 35.806L38.9963 31.9893C39.2874 31.4718 39.6688 31.1591 40.251 31.1591C40.7328 31.267 41.2046 31.5688 41.3049 32.0864L43.5132 38.8896L45.2397 35.2777C45.4304 34.868 45.8118 34.5554 46.2936 34.5554H62.5145C63.8595 33.1106 65.2949 31.6767 66.6399 30.2319C70.0929 26.6201 72.0201 22.4044 72.0201 18.9974H72.0001Z" fill="#D2476A"/>
</g>
<defs>
<clipPath id="clip0_2316_306">
<rect width="72" height="64" fill="white"/>
</clipPath>
</defs>
</svg>
