<svg width="72" height="64" viewBox="0 0 72 64" fill="none" xmlns="http://www.w3.org/2000/svg">
<g clip-path="url(#clip0_2316_344)">
<path fill-rule="evenodd" clip-rule="evenodd" d="M59.2528 11.2233C61.7501 11.2233 64.1471 11.2233 66.6343 11.319C69.7033 11.4051 71.8094 13.3283 71.8094 16.2561C72 21.0113 71.8094 25.7666 71.8997 30.5219C72 31.7179 71.5186 32.0814 70.2749 32.0814C65.2904 32.0814 60.3059 31.9858 55.3213 32.0814C54.2683 32.0814 53.8871 31.7179 53.4057 30.7993C50.0459 23.5755 44.2089 19.6431 35.9548 19.6431C27.7008 19.6431 21.954 23.5755 18.6042 30.7993C18.1228 31.804 17.5512 32.0814 16.4981 32.0814C11.5136 32.0814 6.61929 31.9858 1.73504 32.0814C0.300858 32.0814 0.0100098 31.5361 0.0100098 30.3401C0.100273 25.7666 -1.94842e-05 21.1931 0.100273 16.5335C0.100273 13.3378 2.20642 11.319 5.56622 11.319C10.2599 11.2233 15.0539 11.1372 19.8479 11.319C21.7635 11.4051 22.3452 10.6779 22.1446 9.03225C22.0543 7.66404 22.0543 6.28625 22.1446 4.91804C22.3351 1.99024 24.2507 0.162766 27.3197 0.0670861C33.0765 -0.0190254 38.8332 -0.0190254 44.59 0.0670861C47.8495 0.153198 49.6648 2.07635 49.8654 5.09983C50.056 7.1091 48.9026 9.8551 50.4371 10.8597C51.8713 11.8644 54.5591 11.2233 56.6653 11.2233H59.2528Z" fill="#9DB355"/>
<path fill-rule="evenodd" clip-rule="evenodd" d="M35.8645 64H6.42868C1.91551 64 0.10022 62.1725 0.10022 57.9626C-7.24308e-05 52.107 0.10022 46.3471 -7.24308e-05 40.4915C-0.100365 38.7597 0.571595 38.3866 2.29663 38.3866C6.41865 38.5684 10.641 38.4823 14.8532 38.3866C16.488 38.3866 17.0597 38.6641 17.2502 40.4915C18.3033 49.6385 26.4571 56.403 35.9448 56.403C45.633 56.4987 53.6765 49.4567 54.7296 40.2141C54.8298 38.932 55.1107 38.3866 56.6451 38.3866C61.1483 38.4823 65.6614 38.4823 70.1646 38.3866C71.5085 38.3866 71.9899 38.7502 71.9899 40.0323C71.7993 46.3471 71.9899 52.5663 71.8896 58.8716C71.7993 61.9812 69.6832 63.9043 66.2331 63.9043C56.0735 63.9904 46.0041 63.9904 35.8445 63.9904L35.8645 64Z" fill="#9DB355"/>
<path fill-rule="evenodd" clip-rule="evenodd" d="M33.7585 45.5243V39.3052H27.1392V34.9996H33.7585V28.79H38.1613V34.9996H44.7806V39.3052H38.1613V45.5243H33.7585Z" fill="#D2476A"/>
<path fill-rule="evenodd" clip-rule="evenodd" d="M35.674 9.5775C38.071 9.5775 40.3677 9.5775 42.7647 9.66361C44.0083 9.66361 44.59 9.30002 44.4897 8.1136C44.3995 7.47255 44.3995 6.91761 44.4897 6.28612C44.59 4.54475 44.0083 3.81759 42.0927 3.91327C37.8704 3.99938 33.6581 3.91327 29.5361 3.91327C27.9114 3.81759 27.1391 4.36296 27.2394 5.92254C27.3397 6.6497 27.3397 7.30032 27.2394 8.02749C27.1492 9.30959 27.7208 9.67317 29.0647 9.67317C31.2712 9.58706 33.4776 9.58706 35.674 9.58706V9.5775Z" fill="white"/>
</g>
<defs>
<clipPath id="clip0_2316_344">
<rect width="72" height="64" fill="white"/>
</clipPath>
</defs>
</svg>
