<svg width="80" height="64" viewBox="0 0 80 64" fill="none" xmlns="http://www.w3.org/2000/svg">
<path fill-rule="evenodd" clip-rule="evenodd" d="M79.8752 42.2967C79.3404 40.7999 77.1012 39.8825 74.6504 40.0998C73.904 40.2205 73.1576 40.3291 72.5226 40.5585C69.4368 41.5965 53.562 47.475 53.3504 47.7044H53.0273L53.239 48.0544C55.0437 49.6719 55.9015 51.398 55.467 52.7862C54.9323 54.8624 52.3812 56.1298 48.1256 56.6006C44.2934 56.8299 39.492 56.6006 33.9664 55.3331C34.5012 55.3331 35.2476 55.3331 35.8825 55.4538C39.9264 55.4538 43.7587 55.4538 46.7442 55.2245C51.3228 54.8744 53.4618 53.7277 53.7737 51.8809C53.8739 50.6134 53.239 49.5754 51.6459 48.7666C49.9415 47.8492 46.3209 47.2698 42.8006 46.6904C40.4612 46.2317 38.3334 46.0024 36.7292 45.5437C31.1925 43.9262 25.5445 42.3087 18.9495 42.8881C17.88 43.1175 16.8217 43.1175 15.8636 43.3468C10.7503 44.2642 5.85974 45.5316 0.746393 47.2698L0 47.3905L7.76471 59.2682C9.04583 58.9182 10.5386 58.6888 11.92 58.5802C13.7359 58.3508 15.3289 58.3508 17.0333 58.6888C19.1611 59.0389 24.3859 60.1977 29.4881 61.3444C34.7017 62.4911 39.7036 63.5292 41.6309 63.8793C42.8006 64 43.7587 64 44.9284 64C47.4795 63.7706 50.142 62.2739 52.5928 60.765C53.3392 60.3063 54.1859 59.8476 54.9323 59.3769L77.6137 46.111C80.1759 44.4935 80.1759 42.9968 79.8529 42.3087L79.8752 42.2967Z" fill="#9DB355"/>
<path d="M56.6368 5.20307C57.0267 6.83263 57.0267 8.31734 56.6368 9.9469C56.2246 11.4195 55.6676 13.0491 54.9769 14.6787C54.2974 16.3082 53.8852 17.4912 53.7627 18.5293V22.2229C53.7627 24.2991 53.7627 26.2184 53.4842 28.1497C52.6709 34.511 51.4344 37.6132 49.6631 37.6132C49.262 37.6132 48.9724 37.4563 48.705 37.3235C48.4377 37.0338 48.148 36.5751 48.0143 36.1406C47.8806 35.537 47.747 35.0904 47.6021 34.6559V30.6604C47.7581 30.0569 47.7581 29.3206 47.7581 28.5842C47.8918 27.1116 47.8918 26.0735 47.8918 25.482C47.6133 22.0781 46.2542 20.3037 43.7922 20.3037C41.4639 20.3037 40.0825 22.0901 39.8263 25.482C39.6703 25.9166 39.6703 26.9547 39.8263 28.5842C39.8263 29.3326 39.96 30.0569 39.96 30.6604V32.5676C40.0937 33.4609 39.96 34.0523 39.96 34.6438C39.8263 35.0784 39.8263 35.525 39.6703 36.1285C39.4141 36.5631 39.2693 37.0097 38.9908 37.3115C38.7234 37.4563 38.3001 37.6012 38.0327 37.6012C36.1166 37.6012 34.8912 34.499 34.0668 28.1376C33.9331 26.2184 33.7994 24.287 33.9331 22.2109C33.9331 20.2916 33.9331 19.1087 33.7883 18.5172C33.6435 17.4791 33.2313 16.2962 32.5629 14.6666C31.8833 13.037 31.4711 11.4075 31.059 9.93483C30.6468 8.30527 30.5131 6.82056 30.7805 5.191C31.4823 2.68027 32.5629 1.05071 34.4901 0.314388C35.7156 -0.132232 37.3643 -0.132232 39.4141 0.604088C41.4639 1.19556 42.8341 1.64218 43.7922 1.64218C44.7502 1.64218 46.2542 1.19556 48.304 0.604088C50.2201 -0.144303 51.8577 -0.144303 53.2279 0.314388C54.9881 1.05071 56.2358 2.68027 56.648 5.191L56.6368 5.20307Z" fill="#D2476A"/>
</svg>
