<svg width="88" height="64" viewBox="0 0 88 64" fill="none" xmlns="http://www.w3.org/2000/svg">
<g clip-path="url(#clip0_2420_839)">
<path fill-rule="evenodd" clip-rule="evenodd" d="M60.1987 22.6638V20.857H64C61.9735 18.5945 59.8278 16.3478 57.8013 14.1011V1.79896C57.8013 1.04481 57.298 0.447777 56.6622 0.447777H51.8543C51.2185 0.447777 50.7152 1.04481 50.7152 1.79896V6.44956C48.8212 4.50134 46.9139 2.5374 45.1391 0.447777C44.5033 -0.149259 44.1325 -0.149259 43.3642 0.447777C37.2848 6.9052 31.3377 13.2055 25.2583 19.5215C24.755 19.9771 24.3709 20.4171 24 20.8727H27.0331V42.9473C27.0331 43.8429 27.2848 44 28.0397 44H37.6556C38.4106 44 38.543 43.7015 38.543 42.9473V33.0334C38.543 31.2266 39.4305 30.1896 40.9536 30.1896C42.4768 30.0482 43.8675 30.1896 45.3907 30.1896C47.9205 30.1896 48.8079 31.0852 48.8079 34.2432C48.8079 37.1027 48.8079 40.1036 48.6887 42.9473C48.6887 43.7015 48.9404 44 49.5762 44H59.0728C59.8278 44 60.0795 43.8429 60.2119 43.0887V22.6638H60.1987Z" fill="#D2476A"/>
<path fill-rule="evenodd" clip-rule="evenodd" d="M0.478171 24.302C1.17717 23.544 2.58742 24.002 3.87505 25.0599C4.23068 25.36 4.57405 25.8179 4.81931 26.1179C6.22956 28.0918 13.146 38.1979 13.146 38.3558L13.2563 38.6558H13.146C11.6253 38.9558 10.6811 39.7138 10.5707 40.7718C10.2151 42.4298 11.2697 44.2457 13.379 46.2038C15.3656 47.8618 17.9531 49.5198 21.35 51.0358C20.9943 50.7357 20.6387 50.5778 20.2953 50.2778C18.0757 48.6198 16.0768 47.1039 14.5562 45.9038C12.214 43.7878 11.3923 42.2719 11.748 40.9139C11.981 40.0138 12.6922 39.7138 13.7468 39.7138C14.9241 39.8717 17.0334 40.9139 19.02 41.9719C20.4302 42.5719 21.7179 43.3299 22.7725 43.6299C26.0467 44.83 29.5662 46.0459 32.9631 49.0619C33.4291 49.5198 34.0177 50.1199 34.4837 50.5778C36.9486 53.1359 39.1805 56.0099 41.5228 59.1838L41.8784 59.3259L34.263 64C33.6744 63.242 32.9754 62.4999 32.2764 61.884C31.3444 60.9839 30.5228 60.3681 29.4559 59.7681C28.2909 59.3101 25.1147 57.81 22.0735 56.6099C18.9096 55.2519 15.9787 53.8939 14.8015 53.436C14.1025 52.978 13.6365 52.678 13.0356 52.078C11.748 51.02 10.6933 48.904 9.76134 47.0881C9.52834 46.3301 9.17271 45.888 8.93971 45.13L0.588539 27.618C-0.343457 25.66 -8.97294e-05 24.7441 0.478171 24.302Z" fill="#9DB355"/>
<path fill-rule="evenodd" clip-rule="evenodd" d="M87.5708 24.302C86.8595 23.544 85.4615 24.002 84.1739 25.0599C83.8183 25.36 83.4749 25.8179 83.2419 26.1179C81.8316 28.0918 75.0379 38.1979 74.9152 38.3558L74.8049 38.6558H75.0379C76.4481 38.9558 77.3801 39.7138 77.4905 40.7718C77.8461 42.4298 76.7915 44.2457 74.6822 46.2038C72.6956 47.8618 69.9977 49.5198 66.7112 51.0358C67.0669 50.7357 67.4102 50.5778 67.7659 50.2778C69.9977 48.6198 71.9844 47.1039 73.505 45.9038C75.8472 43.7878 76.6689 42.2719 76.3132 40.9139C76.0802 40.0138 75.3812 39.7138 74.3266 39.7138C73.1494 39.8717 71.0401 40.9139 69.0535 41.9719C67.6432 42.5719 66.3556 43.3299 65.301 43.6299C61.9041 44.83 58.5072 46.0459 55.1103 49.0619C54.6443 49.5198 54.0557 50.1199 53.5897 50.5778C51.1248 53.1359 48.9052 56.0099 46.5507 59.1838L46.1951 59.3259L53.7001 64C54.3991 63.242 55.1103 62.4999 55.8093 61.884C56.7536 60.9839 57.5752 60.3681 58.5072 59.7681C59.7948 59.3101 62.9587 57.81 66.0122 56.6099C69.1761 55.2519 72.2296 53.8939 73.2843 53.436C73.9832 52.978 74.5719 52.678 75.0501 52.078C76.3378 51.02 77.3924 48.904 78.3244 47.0881C78.5574 46.3301 78.7904 45.888 79.146 45.13L87.4604 27.618C88.4047 25.66 87.9264 24.7441 87.583 24.302H87.5708Z" fill="#9DB355"/>
</g>
<defs>
<clipPath id="clip0_2420_839">
<rect width="88" height="64" fill="white"/>
</clipPath>
</defs>
</svg>
