<svg width="16" height="17" viewBox="0 0 16 17" fill="none" xmlns="http://www.w3.org/2000/svg">
<g clip-path="url(#clip0_2328_159)">
<path d="M0.0380859 16.5L1.16275 12.3913C0.468753 11.1887 0.104086 9.82533 0.104753 8.42733C0.106753 4.05667 3.66342 0.5 8.03342 0.5C10.1541 0.500667 12.1448 1.32667 13.6421 2.82533C15.1388 4.324 15.9628 6.316 15.9621 8.43467C15.9601 12.806 12.4034 16.3627 8.03342 16.3627C6.70675 16.362 5.39942 16.0293 4.24142 15.3973L0.0380859 16.5ZM4.43609 13.962C5.55342 14.6253 6.62009 15.0227 8.03075 15.0233C11.6628 15.0233 14.6214 12.0673 14.6234 8.43333C14.6248 4.792 11.6801 1.84 8.03609 1.83867C4.40142 1.83867 1.44475 4.79467 1.44342 8.428C1.44275 9.91133 1.87742 11.022 2.60742 12.184L1.94142 14.616L4.43609 13.962ZM12.0274 10.3193C11.9781 10.2367 11.8461 10.1873 11.6474 10.088C11.4494 9.98867 10.4754 9.50933 10.2934 9.44333C10.1121 9.37733 9.98009 9.344 9.84742 9.54267C9.71542 9.74067 9.33542 10.1873 9.22009 10.3193C9.10475 10.4513 8.98875 10.468 8.79075 10.3687C8.59275 10.2693 7.95408 10.0607 7.19742 9.38533C6.60875 8.86 6.21075 8.21133 6.09542 8.01267C5.98009 7.81467 6.08342 7.70733 6.18209 7.60867C6.27142 7.52 6.38009 7.37733 6.47942 7.26133C6.58009 7.14667 6.61275 7.064 6.67942 6.93133C6.74542 6.79933 6.71275 6.68333 6.66275 6.584C6.61275 6.48533 6.21675 5.51 6.05209 5.11333C5.89075 4.72733 5.72742 4.77933 5.60609 4.77333L5.22609 4.76667C5.09409 4.76667 4.87942 4.816 4.69809 5.01467C4.51675 5.21333 4.00475 5.692 4.00475 6.66733C4.00475 7.64267 4.71475 8.58467 4.81342 8.71667C4.91275 8.84867 6.21009 10.85 8.19742 11.708C8.67008 11.912 9.03942 12.034 9.32675 12.1253C9.80142 12.276 10.2334 12.2547 10.5748 12.204C10.9554 12.1473 11.7468 11.7247 11.9121 11.262C12.0774 10.7987 12.0774 10.402 12.0274 10.3193Z" fill="#9DB355"/>
</g>
<defs>
<clipPath id="clip0_2328_159">
<rect width="16" height="16" fill="white" transform="translate(0 0.5)"/>
</clipPath>
</defs>
</svg>
