<svg width="16" height="17" viewBox="0 0 16 17" fill="none" xmlns="http://www.w3.org/2000/svg">
<g clip-path="url(#clip0_2328_153)">
<path d="M4.11739 1.38133L6.01339 0.5L8.70739 5.76L6.89139 6.654C6.53272 7.49333 8.33072 10.8467 9.08939 10.902C9.14939 10.8633 10.8701 10.0167 10.8701 10.0167L13.6101 15.3047C13.6101 15.3047 11.7674 16.2073 11.7074 16.2353C6.46606 18.6293 -1.02794 4.06333 4.11739 1.38133ZM5.40339 2.23067L4.72139 2.56667C1.19206 4.408 7.50606 16.69 11.1534 15.024L11.8007 14.708L10.2867 11.786L9.60272 12.1193C7.49406 13.1507 4.09472 6.64 6.23272 5.494L6.90406 5.16267L5.40339 2.23067Z" fill="#9DB355"/>
</g>
<defs>
<clipPath id="clip0_2328_153">
<rect width="16" height="16" fill="white" transform="translate(0 0.5)"/>
</clipPath>
</defs>
</svg>
