<svg width="80" height="64" viewBox="0 0 80 64" fill="none" xmlns="http://www.w3.org/2000/svg">
<g clip-path="url(#clip0_2369_565)">
<path fill-rule="evenodd" clip-rule="evenodd" d="M79.5656 25.7461C78.9306 25.0157 77.6495 25.457 76.4797 26.4765C76.1566 26.7656 75.8335 27.2069 75.6219 27.6329C74.3407 29.3828 68.1689 39.1213 68.0686 39.2734L67.9572 39.5625H68.0686C69.45 39.8516 70.3079 40.582 70.5195 41.6015C70.7312 43.0623 69.8845 44.9491 67.8569 46.836C66.041 48.4337 63.7015 50.0314 60.6156 51.4922C60.9387 51.3552 61.2506 51.0509 61.5737 50.7618C63.5901 49.1641 65.406 47.8555 66.7875 46.5468C68.9153 44.5079 69.6617 43.0623 69.3498 41.7537C69.1381 40.8864 68.5031 40.4451 67.5339 40.7342C66.4755 40.7342 64.5594 41.7537 62.7434 42.7732C61.4623 43.5036 60.2925 44.0818 59.4459 44.3709C56.3599 45.5273 53.1626 46.699 50.0767 49.6053C49.6534 50.0466 49.1186 50.6248 48.6953 51.0661C46.456 53.6833 44.4396 56.3005 42.3006 59.2069L41.9775 59.496L48.8958 64C49.4305 63.2696 50.0655 62.5392 50.7006 61.961C51.5472 61.0937 52.3048 60.5002 53.2517 60.0742C54.3212 59.496 57.1955 58.1721 59.9583 56.8788C62.8326 55.5701 65.6066 54.2615 66.5535 53.8203C67.1885 53.379 67.623 53.0899 68.1466 52.5117C69.3163 51.4922 70.2744 49.4684 71.1323 47.7033C71.3439 47.1251 71.667 46.5468 71.8787 45.8165L79.4431 28.9415C80.2897 27.0547 79.9667 26.1874 79.5433 25.7461H79.5656Z" fill="#9DB355"/>
<path fill-rule="evenodd" clip-rule="evenodd" d="M29.5223 22.9767V25.1526C30.692 26.0352 31.7615 26.7503 32.7196 27.3286C27.8178 30.0827 24.7319 30.0827 23.9855 38.2387H13.8699C13.8699 27.1916 16.8555 29.9458 22.916 25.1526V23.2658C21.8465 22.2463 21.6348 20.3595 21.3229 18.4726C21.1112 18.4726 20.9998 18.1835 20.9998 17.7423V17.5901C20.8884 17.301 20.7881 17.0119 20.6767 16.5706C20.5765 15.9924 20.1531 14.8207 20.4651 14.2425C20.7881 13.9534 20.9998 14.2425 20.9998 14.2425C20.5765 11.184 19.9303 6.96908 23.239 5.81264C23.239 3.04326 30.692 4.21492 31.5499 8.58201C31.9843 10.3319 31.4385 14.2577 31.4385 14.2577C31.5499 13.9686 31.6501 13.9686 31.8618 14.1056C32.2851 14.5468 31.8618 16.1445 31.7615 16.5858C31.6501 17.0271 31.5499 17.3162 31.4385 17.6053V17.7575C31.4385 18.1988 31.3271 18.4879 31.1154 18.4879C30.7923 20.2377 30.4804 22.1246 29.5223 22.9919V22.9767Z" fill="#9DB355"/>
<path fill-rule="evenodd" clip-rule="evenodd" d="M44.3169 23.418V26.1873C51.8814 32.1521 55.7137 29.0937 55.7137 42.4841H24.7319C24.7319 28.6676 28.5643 32.1521 36.1287 26.1873V23.8592C34.8475 22.5506 34.5244 20.2225 34.0008 17.7575C33.7892 17.7575 33.6778 17.3162 33.6778 16.8901V16.601C33.4661 16.3119 33.4661 16.0228 33.2544 15.4446C33.143 14.7142 32.6194 13.1165 33.0428 12.5383C33.4661 12.097 33.6778 12.5383 33.6778 12.5383C33.143 8.61245 32.3966 3.37802 36.4406 1.7803C36.4406 -1.59773 45.8098 -9.62033e-06 46.9795 5.38658C47.4029 7.56252 46.7679 12.5078 46.7679 12.5078C46.8793 12.0666 47.0909 12.0666 47.3026 12.2187C47.8373 12.66 47.3026 14.6838 47.0909 15.4142C46.9795 15.9924 46.8793 16.4337 46.7679 16.7228V16.8749C46.7679 17.3162 46.5562 17.7423 46.3445 17.7423C46.0214 19.9182 45.5981 22.2463 44.3169 23.418Z" fill="#D2476A"/>
<path fill-rule="evenodd" clip-rule="evenodd" d="M57.7413 22.9767V25.1526C63.7015 29.9458 66.7874 27.4807 66.7874 38.2387H56.4602C55.6135 30.524 52.5164 30.2349 47.8374 27.3286C48.7955 26.7503 49.865 26.1721 51.135 25.1526V23.2658C50.0766 22.2463 49.8538 20.3595 49.4305 18.4726C49.3191 18.4726 49.2188 18.1835 49.2188 17.7423V17.5901C49.1074 17.301 49.0072 17.0119 48.8958 16.5706C48.7843 15.9924 48.361 14.8207 48.7843 14.2425C48.996 13.9534 49.2077 14.2425 49.2077 14.2425C48.7843 11.184 48.2496 6.96908 51.4469 5.81264C51.4469 3.04326 58.8999 4.21492 59.7577 8.58201C60.1811 10.3319 59.6463 14.2577 59.6463 14.2577C59.7578 13.9686 59.858 13.9686 60.0697 14.1056C60.493 14.5468 60.0697 16.1445 59.9694 16.5858C59.858 17.0271 59.7578 17.3162 59.6463 17.6053V17.7575C59.6463 18.1988 59.5349 18.4879 59.3233 18.4879C59.0002 20.2377 58.6883 22.1246 57.7302 22.9919L57.7413 22.9767Z" fill="#9DB355"/>
<path fill-rule="evenodd" clip-rule="evenodd" d="M0.445752 25.7461C1.08076 25.0157 2.36192 25.457 3.53167 26.4765C3.85475 26.7656 4.17782 27.2069 4.38949 27.6329C5.67065 29.3828 11.8425 39.1213 11.9428 39.2734L12.0542 39.5625H11.9428C10.5613 39.8516 9.70352 40.582 9.49185 41.6015C9.28018 43.0623 10.1269 44.9491 12.1544 46.836C13.9703 48.4337 16.4212 50.0314 19.3958 51.4922C19.0727 51.3552 18.7607 51.0509 18.4377 50.7618C16.4212 49.1641 14.6053 47.8555 13.2239 46.5468C11.0961 44.5079 10.3497 43.0623 10.6616 41.7537C10.8733 40.8864 11.5083 40.4451 12.4775 40.7342C13.547 40.7342 15.452 41.7537 17.2679 42.7732C18.5491 43.5036 19.7188 44.0818 20.5655 44.3709C23.6514 45.5273 26.8488 46.699 29.9347 49.6053C30.358 50.0466 30.8928 50.6248 31.3161 51.0661C33.5553 53.6833 35.5718 56.3005 37.7108 59.2069L38.0338 59.496L31.1156 64C30.5808 63.2696 29.9458 62.5392 29.3108 61.961C28.4641 61.0937 27.7066 60.5002 26.8599 60.0742C25.6901 59.496 22.8159 58.1721 20.0419 56.8788C17.1677 55.5701 14.4048 54.2615 13.4467 53.8203C12.8006 53.379 12.3772 53.0899 11.8536 52.5117C10.6839 51.4922 9.7258 49.4684 8.86798 47.7033C8.65631 47.1251 8.33323 46.5468 8.12156 45.8165L0.445752 28.9415C-0.300662 27.0547 0.0224125 26.1874 0.445752 25.7461Z" fill="#9DB355"/>
</g>
<defs>
<clipPath id="clip0_2369_565">
<rect width="80" height="64" fill="white"/>
</clipPath>
</defs>
</svg>
