<svg width="16" height="17" viewBox="0 0 16 17" fill="none" xmlns="http://www.w3.org/2000/svg">
<path d="M7.33333 7.83333H2.5C2.224 7.83333 2 8.05733 2 8.33333C2 8.60933 2.224 8.83333 2.5 8.83333H7.33333V13.6667C7.33333 13.9427 7.55733 14.1667 7.83333 14.1667C8.10933 14.1667 8.33333 13.9427 8.33333 13.6667V8.83333H13.1667C13.4427 8.83333 13.6667 8.60933 13.6667 8.33333C13.6667 8.05733 13.4427 7.83333 13.1667 7.83333H8.33333V3C8.33333 2.724 8.10933 2.5 7.83333 2.5C7.55733 2.5 7.33333 2.724 7.33333 3V7.83333Z" fill="#D2476A"/>
</svg>
