<svg width="17" height="16" viewBox="0 0 17 16" fill="none" xmlns="http://www.w3.org/2000/svg">
<g clip-path="url(#clip0_2341_1593)">
<path d="M13.9998 13.3333H11.3332V10.6667H13.9998V13.3333ZM9.99984 6.66667H7.33317V9.33333H9.99984V6.66667ZM13.9998 6.66667H11.3332V9.33333H13.9998V6.66667ZM5.99984 10.6667H3.33317V13.3333H5.99984V10.6667ZM9.99984 10.6667H7.33317V13.3333H9.99984V10.6667ZM5.99984 6.66667H3.33317V9.33333H5.99984V6.66667ZM16.6665 1.33333V16H0.666504V1.33333H2.6665V2C2.6665 2.73533 3.2645 3.33333 3.99984 3.33333C4.73517 3.33333 5.33317 2.73533 5.33317 2V1.33333H11.9998V2C11.9998 2.73533 12.5978 3.33333 13.3332 3.33333C14.0685 3.33333 14.6665 2.73533 14.6665 2V1.33333H16.6665ZM15.3332 5.33333H1.99984V14.6667H15.3332V5.33333ZM13.9998 0.666667C13.9998 0.298667 13.7018 0 13.3332 0C12.9645 0 12.6665 0.298667 12.6665 0.666667V2C12.6665 2.368 12.9645 2.66667 13.3332 2.66667C13.7018 2.66667 13.9998 2.368 13.9998 2V0.666667ZM4.6665 2C4.6665 2.368 4.3685 2.66667 3.99984 2.66667C3.63117 2.66667 3.33317 2.368 3.33317 2V0.666667C3.33317 0.298667 3.63117 0 3.99984 0C4.3685 0 4.6665 0.298667 4.6665 0.666667V2Z" fill="#3F3844"/>
</g>
<defs>
<clipPath id="clip0_2341_1593">
<rect width="16" height="16" fill="white" transform="translate(0.666504)"/>
</clipPath>
</defs>
</svg>
