<svg width="14" height="14" viewBox="0 0 14 14" fill="none" xmlns="http://www.w3.org/2000/svg">
<g clip-path="url(#clip0_2453_101)">
<path d="M9.91683 5.69392V2.91667C9.91683 1.30608 8.61133 0 7.00016 0C5.38841 0 4.0835 1.30608 4.0835 2.91667V5.69392C3.01775 6.54908 2.3335 7.86042 2.3335 9.33333C2.3335 11.9105 4.423 14 7.00016 14C9.57733 14 11.6668 11.9105 11.6668 9.33333C11.6668 7.86042 10.9826 6.54908 9.91683 5.69392ZM5.25016 2.91667C5.25016 1.95183 6.03533 1.16667 7.00016 1.16667C7.965 1.16667 8.75016 1.95183 8.75016 2.91667V5.00908C8.20941 4.78975 7.61966 4.66667 7.00016 4.66667C6.38066 4.66667 5.79091 4.78975 5.25016 5.00908V2.91667ZM7.5835 9.75508V11.0833H6.41683V9.75508C6.06916 9.55267 5.8335 9.18108 5.8335 8.75C5.8335 8.106 6.35616 7.58333 7.00016 7.58333C7.64416 7.58333 8.16683 8.106 8.16683 8.75C8.16683 9.1805 7.93116 9.55267 7.5835 9.75508Z" fill="#999999"/>
</g>
<defs>
<clipPath id="clip0_2453_101">
<rect width="14" height="14" fill="white"/>
</clipPath>
</defs>
</svg>
