<svg width="32" height="32" viewBox="0 0 32 32" fill="none" xmlns="http://www.w3.org/2000/svg">
<rect x="1" y="1.25" width="30" height="29.5" rx="3" stroke="#D2476A" stroke-width="2"/>
<path d="M26 21C26 20.586 25.664 20.25 25.25 20.25H6.75C6.336 20.25 6 20.586 6 21C6 21.414 6.336 21.75 6.75 21.75H25.25C25.664 21.75 26 21.414 26 21ZM26 16C26 15.586 25.664 15.25 25.25 15.25H6.75C6.336 15.25 6 15.586 6 16C6 16.414 6.336 16.75 6.75 16.75H25.25C25.664 16.75 26 16.414 26 16ZM26 11C26 10.586 25.664 10.25 25.25 10.25H6.75C6.336 10.25 6 10.586 6 11C6 11.414 6.336 11.75 6.75 11.75H25.25C25.664 11.75 26 11.414 26 11Z" fill="#D2476A"/>
</svg>
