<svg width="72" height="64" viewBox="0 0 72 64" fill="none" xmlns="http://www.w3.org/2000/svg">
<g clip-path="url(#clip0_2420_804)">
<path fill-rule="evenodd" clip-rule="evenodd" d="M46.4225 32.3525V31.4271H48.9651C47.689 30.3343 46.2321 29.1534 44.9561 28.0606V21.8298C44.9561 21.4067 44.5942 21.0719 44.1371 21.0719H41.128C40.6709 21.0719 40.3091 21.4067 40.3091 21.8298V24.1917C39.1283 23.1782 37.9379 22.1735 36.7572 21.16C36.3001 20.737 36.0239 20.737 35.5764 21.16C31.6626 24.3591 27.7488 27.5582 23.8351 30.7661C23.5589 30.9336 23.2923 31.1892 23.0161 31.4447H25.0158V42.5668C25.0158 43.0691 25.1111 43.1572 25.6539 43.1572H31.8435C32.3006 43.1572 32.4815 42.9898 32.4815 42.5668C32.3958 40.9628 32.4815 39.2795 32.4815 37.5962C32.4815 36.6709 33.0338 36.1597 34.0337 36.0804H36.8524C38.576 36.0804 39.033 36.5827 39.033 38.1867V42.6461C39.033 42.981 39.1283 43.1484 39.5853 43.1484H45.6893C46.2321 43.1484 46.413 43.0691 46.413 42.7254V32.3613L46.4225 32.3525Z" fill="#9DB355"/>
<path fill-rule="evenodd" clip-rule="evenodd" d="M5.92293 12.8934C6.28479 13.8188 7.82744 14.3211 9.56054 14.1537C10.0176 14.1537 10.5604 14.0656 11.0175 13.8981C13.2077 13.3076 24.2157 9.77363 24.311 9.6855L24.5871 9.59737L24.4062 9.50924C23.1302 8.49574 22.5017 7.49106 22.8635 6.64501C23.2254 5.37594 25.0442 4.62684 27.9581 4.45058C30.5959 4.195 33.9668 4.45058 37.7854 5.12036C37.4235 5.12036 36.8712 5.12036 36.4237 5.03223C33.605 5.03223 31.0529 5.03223 28.958 5.19968C25.7679 5.45526 24.2253 6.04573 24.0443 7.22667C23.9491 7.98459 24.4062 8.57506 25.5013 8.99808C26.6821 9.58855 29.1389 9.92345 31.5957 10.2583C33.2336 10.5139 34.7858 10.6814 35.8713 11.0163C39.6994 11.8535 43.6132 12.867 48.2507 12.5321C48.9744 12.444 49.7076 12.3646 50.3456 12.1972C53.8975 11.6949 57.259 10.9369 60.9061 9.92345H61.3632L55.9925 2.84661C55.0783 3.01406 54.0785 3.1815 53.1738 3.26963C51.8978 3.35776 50.717 3.35776 49.5267 3.1815C48.0697 2.92593 44.4321 2.25614 40.8802 1.57754C37.2426 0.81962 33.7764 0.229149 32.4147 0.0617018C31.6814 -0.0264282 30.9577 -0.0264282 30.234 -0.0264282C28.4152 0.141019 26.5964 1.06638 24.8633 1.8243C24.3205 2.24733 23.7682 2.41477 23.2254 2.74967L7.46558 10.6109C5.742 11.6244 5.742 12.4616 5.92293 12.8846V12.8934Z" fill="#9DB355"/>
<path fill-rule="evenodd" clip-rule="evenodd" d="M71.7238 10.6108H64.6295C64.3533 10.6108 63.9058 10.3553 63.7153 10.1085L56.9829 1.18093C56.8019 0.846031 56.8019 0.590454 57.1638 0.590454H64.2676C64.5438 0.590454 64.9913 0.846031 65.1818 1.18093L71.9142 10.1085C72.0951 10.3641 71.9999 10.6108 71.7333 10.6108H71.7238Z" fill="#D2476A"/>
<path fill-rule="evenodd" clip-rule="evenodd" d="M65.4486 51.0537C65.0867 50.2076 63.5346 49.7053 61.7157 49.7846C61.2587 49.8727 60.8111 49.9521 60.354 50.0402C58.1734 50.7188 47.1558 54.2528 46.9748 54.2528L46.7939 54.3409L46.9748 54.5084C48.1556 55.4337 48.7936 56.5266 48.5175 57.3726C48.1556 58.5535 46.3368 59.3115 43.3277 59.5582C40.69 59.7257 37.4142 59.5582 33.5004 58.8796H34.8622C37.6808 58.8796 40.3281 58.8796 42.4135 58.7915C45.6036 58.5359 47.0605 57.8661 47.3272 56.7733C47.3272 56.0154 46.9653 55.4249 45.775 54.9226C44.5942 54.3321 42.1374 54.0854 39.6806 53.6623C38.0427 53.4949 36.5857 53.2393 35.4049 52.9837C31.5769 52.0584 27.6631 51.133 23.1113 51.4679C22.3781 51.556 21.6544 51.6353 21.0164 51.7235C17.4645 52.3139 14.0078 53.0719 10.4559 53.9972L9.99878 54.0854L15.3695 61.1622C16.1884 60.9948 17.274 60.8273 18.1882 60.7392C19.4642 60.5717 20.645 60.651 21.7401 60.8273C23.197 60.9947 26.9299 61.6733 30.3866 62.3431C34.0242 63.1011 37.5761 63.6915 38.8521 63.9471C39.671 64.0352 40.3091 64.0352 41.128 63.9471C42.8611 63.859 44.7656 62.9336 46.4987 62.0964C46.9558 61.7615 47.5938 61.5059 48.0414 61.2503L63.8774 53.4156C65.6009 52.4021 65.6009 51.5648 65.42 51.0537H65.4486Z" fill="#9DB355"/>
<path fill-rule="evenodd" clip-rule="evenodd" d="M0.276223 53.3275H7.38005C7.6562 53.3275 8.10376 53.4949 8.29421 53.8298L15.0267 62.7574C15.2933 63.0129 15.2076 63.2597 14.8457 63.2597H7.83713C7.47527 63.2597 7.01819 63.0041 6.83726 62.7574L0.095295 53.8298C-0.0856334 53.4949 6.95296e-05 53.3275 0.276223 53.3275Z" fill="#D2476A"/>
</g>
<defs>
<clipPath id="clip0_2420_804">
<rect width="72" height="64" fill="white"/>
</clipPath>
</defs>
</svg>
