<svg width="72" height="64" viewBox="0 0 72 64" fill="none" xmlns="http://www.w3.org/2000/svg">
<g clip-path="url(#clip0_2316_365)">
<path fill-rule="evenodd" clip-rule="evenodd" d="M11.335 21.58L3.95503 12.38L1.40503 13.09L3.51503 20.75L11.335 21.58Z" fill="#D2476A"/>
<path fill-rule="evenodd" clip-rule="evenodd" d="M41.835 26.32L25.215 8.15002L21.775 9.47002L25.865 25.07C18.805 24.38 5.93497 23.03 3.65497 22.72C1.66497 22.46 13.645 30.35 16.885 31.22C16.885 31.22 42.995 34.56 54.505 35.86C57.535 36.31 60.485 36.65 63.525 37C65.425 37.24 70.295 36.08 70.575 34C70.915 32.12 66.735 30 64.745 29.74L41.835 26.32Z" fill="#9DB355"/>
<path fill-rule="evenodd" clip-rule="evenodd" d="M67.625 55.85H3.39502V52.69H67.625V55.85Z" fill="#D2476A"/>
</g>
<defs>
<clipPath id="clip0_2316_365">
<rect width="69.19" height="47.7" fill="white" transform="translate(1.40503 8.15002)"/>
</clipPath>
</defs>
</svg>
