<svg width="26" height="24" viewBox="0 0 26 24" fill="none" xmlns="http://www.w3.org/2000/svg">
<g clip-path="url(#clip0_2312_58)">
<path d="M7.1756 1.322L10.0196 0L14.0606 7.89L11.3366 9.231C10.7986 10.49 13.4956 15.52 14.6336 15.603C14.7236 15.545 17.3046 14.275 17.3046 14.275L21.4146 22.207C21.4146 22.207 18.6506 23.561 18.5606 23.603C10.6986 27.194 -0.542402 5.345 7.1756 1.322ZM9.1046 2.596L8.0816 3.1C2.7876 5.862 12.2586 24.285 17.7296 21.786L18.7006 21.312L16.4296 16.929L15.4036 17.429C12.2406 18.976 7.1416 9.21 10.3486 7.491L11.3556 6.994L9.1046 2.596Z" fill="white"/>
</g>
<defs>
<clipPath id="clip0_2312_58">
<rect width="24.8291" height="23.9999" fill="white" transform="translate(0.585449)"/>
</clipPath>
</defs>
</svg>
