<svg width="46" height="64" viewBox="0 0 46 64" fill="none" xmlns="http://www.w3.org/2000/svg">
<g clip-path="url(#clip0_2420_813)">
<path fill-rule="evenodd" clip-rule="evenodd" d="M38.7425 36.6434C36.7605 36.7334 35.0644 38.4522 35.163 40.3419C35.2616 42.0607 37.0464 43.6985 39.0284 43.6085C41.0992 43.5185 42.7064 41.8897 42.5191 39.91C42.4205 38.0202 40.8231 36.5534 38.7523 36.6434H38.7425Z" fill="#D2476A"/>
<path fill-rule="evenodd" clip-rule="evenodd" d="M6.12351 40.9449C7.81955 41.0349 9.22962 42.4927 9.14088 44.1305C9.14088 45.5883 7.54345 46.8841 5.93616 46.7942C4.14152 46.7942 2.83005 45.4173 2.9188 43.6985C3.01741 42.1507 4.42748 40.9449 6.12351 40.9449Z" fill="#D2476A"/>
<path fill-rule="evenodd" clip-rule="evenodd" d="M27.6196 27.9505C27.6196 30.1012 25.6376 31.82 23.2809 31.82C20.7369 31.82 18.8535 30.0112 18.9422 27.6895C18.9422 25.4578 20.9242 23.82 23.3795 23.82C25.8348 23.82 27.6196 25.7098 27.6196 27.9505Z" fill="#D2476A"/>
<path fill-rule="evenodd" clip-rule="evenodd" d="M17.6211 39.649C17.2464 40.162 16.7731 40.5939 16.5857 41.1069C14.9785 44.0315 12.6218 46.2632 10.1763 48.5039C9.4269 49.1069 9.14094 49.7908 9.22969 50.6547V62.2632C9.22969 63.1271 9.3283 63.982 8.09571 63.982C6.86313 63.982 6.58703 63.2891 6.58703 62.3442C6.68564 60.3645 6.68564 58.4747 6.68564 56.5849C6.58703 56.072 6.9716 55.2081 6.02498 55.2081C5.17696 55.2081 5.36431 56.072 5.36431 56.4949V62.0832C5.36431 62.9471 5.55166 63.973 4.04298 63.973C2.72165 63.973 2.82026 62.9381 2.82026 62.1642C2.82026 58.5557 2.909 55.1091 2.82026 51.5816C2.82026 50.9786 3.10622 50.3757 2.07085 49.4308V53.4713C2.07085 54.2452 2.2582 55.0191 1.03548 55.0191C0.000109092 55.0191 0.0987157 54.2452 0.0987157 53.5523V49.4218C0.0987157 47.964 0.848126 47.1001 2.64277 47.1901C4.05284 47.2801 5.37417 47.1901 6.79411 47.1901C9.24941 47.1901 10.1862 46.4162 11.3202 44.4364C13.3909 40.6479 15.7476 36.9494 18.5776 33.6828C19.4256 32.6479 20.461 31.964 21.8809 33.1699C22.7289 33.8538 23.9517 33.7728 24.7997 33.0799C25.9337 32.135 26.6831 32.5669 27.6297 33.3408C28.8524 34.3757 29.6117 35.6625 30.4597 36.9494C31.781 38.9291 33.1024 40.9089 34.5124 42.8886C34.5124 43.0596 34.6998 43.2306 34.7984 43.3206C35.5478 43.8425 36.593 44.0945 38.0031 44.0945C39.6005 44.0945 41.3064 44.1845 42.9039 44.0945C44.9746 44.0945 45.9212 45.0394 45.9212 46.7582V51.6625C45.9212 52.4364 46.0198 53.3813 44.7872 53.3813C43.3673 53.3813 43.5645 52.4364 43.5645 51.5726V46.7582C42.3418 47.874 42.6179 48.5669 42.6179 49.2508V61.8133C42.6179 62.7582 42.8053 63.964 41.2078 63.964C39.5118 63.964 39.6005 62.7582 39.6005 61.6423V55.1091C39.6005 54.5962 39.8865 53.5613 38.9399 53.5613C37.7172 53.5613 38.1905 54.5962 38.1905 55.1991C38.0919 57.5208 38.1905 59.7525 38.1905 61.9933C38.1905 63.1091 37.8158 64.054 36.4944 63.973C34.9857 63.973 35.0844 62.8481 35.0844 61.9933V48.144C35.183 45.5613 33.763 46.5962 32.1656 44.3555C31.1302 42.8077 29.8089 40.9179 28.5862 39.622C29.4342 42.2047 30.2822 44.7874 31.1302 47.2801C31.7909 49.6018 31.5049 50.0337 28.8623 50.0337C27.4522 49.9438 27.2648 50.4657 27.2648 51.5816V61.3903C27.2648 62.5962 27.2648 63.973 25.5688 63.973C23.9714 63.973 24.0601 62.5962 24.0601 61.4803V51.8425C24.0601 51.2396 24.5334 50.1237 23.3009 50.1237C21.9795 50.1237 22.5514 51.2396 22.5514 51.7615V61.8223C22.5514 62.7672 22.3641 63.712 21.2301 63.892C19.7214 64.153 19.3467 63.1181 19.3467 62.0023C19.3467 58.6457 19.2481 55.2081 19.3467 51.8515C19.3467 50.4747 18.9622 49.9618 17.3647 50.0427C15.1954 50.1327 14.8207 49.5298 15.3827 47.631C16.2308 45.0484 17.0788 42.4657 17.9268 39.802C17.838 39.712 17.7394 39.712 17.6408 39.631L17.6211 39.649Z" fill="#9DB355"/>
<path fill-rule="evenodd" clip-rule="evenodd" d="M0 22.4522C0.562058 22.4522 1.03537 22.2812 1.50868 22.1912C3.49068 21.8493 5.37406 21.9303 7.25745 22.4522C8.07917 22.6802 8.55248 22.4222 8.67738 21.6783C8.95348 18.6637 9.81136 15.829 11.1228 13.0754C12.3554 10.1508 14.1402 7.56807 16.6842 5.50733C16.9702 5.24636 17.3449 5.07539 17.4337 4.73343C17.1477 4.47246 16.8716 4.64344 16.5856 4.64344C8.39142 6.28123 1.50868 13.0754 0.187353 20.6434C0.187353 20.7334 0.088746 20.9044 0 21.0754V22.4522Z" fill="#9DB355"/>
<path fill-rule="evenodd" clip-rule="evenodd" d="M23.3796 0C24.415 0.773903 23.3796 2.83465 23.9417 3.86952C24.2277 4.47244 25.263 4.30146 25.8251 4.55343C27.8958 5.49831 29.5031 6.96513 30.7258 8.59393C33.546 12.2025 34.9659 16.333 35.7153 20.6344C35.8041 21.2373 36.0013 21.8403 36.09 22.4432C36.1886 22.9561 36.09 23.2171 35.4294 22.9561C31.9387 21.8403 28.3593 21.2373 24.6812 20.9764C21.6639 20.7154 18.7451 21.1474 15.8264 21.6693C14.0317 21.9303 12.3357 22.3622 10.6397 22.9561C9.89025 23.1271 9.69304 22.8661 9.79164 22.2722C9.89025 20.9764 10.1663 19.6895 10.5411 18.4027C11.3891 14.6142 12.809 11.0866 15.4418 8.08099C16.7631 6.53318 18.262 5.06637 20.3426 4.38245C21.4732 4.04049 22.0386 3.29659 22.0386 2.15073C22.0386 1.37683 21.7526 0.602925 22.5119 0H23.3599L23.3796 0Z" fill="#D2476A"/>
<path fill-rule="evenodd" clip-rule="evenodd" d="M46.0001 22.4522C45.438 22.4522 44.9647 22.2812 44.4914 22.1912C42.5094 21.8493 40.626 21.9303 38.7426 22.4522C37.9275 22.6802 37.4574 22.4222 37.3325 21.6783C36.9578 18.6637 36.1986 15.829 34.8772 13.0754C33.5559 10.1508 31.8599 7.56807 29.3158 5.50733C29.0299 5.24636 28.6552 5.07539 28.5664 4.73343C28.8524 4.47246 29.1285 4.64344 29.4144 4.64344C37.6185 6.28123 44.5012 13.0754 45.8127 20.6434C45.8127 20.7334 45.9113 20.9044 46.0001 21.0754V22.4522Z" fill="#9DB355"/>
</g>
<defs>
<clipPath id="clip0_2420_813">
<rect width="46" height="64" fill="white"/>
</clipPath>
</defs>
</svg>
