<svg width="80" height="64" viewBox="0 0 80 64" fill="none" xmlns="http://www.w3.org/2000/svg">
<g clip-path="url(#clip0_2316_318)">
<path fill-rule="evenodd" clip-rule="evenodd" d="M30.5541 29.9807H14.2578C14.2578 27.712 12.5536 26.0015 10.5374 26.0015V7.61396C12.5536 7.61396 14.2578 5.90349 14.2578 3.63475H30.866V0.677063H7.66357V32.9146H30.0195L30.5541 29.9688V29.9807Z" fill="#9DB355"/>
<path fill-rule="evenodd" clip-rule="evenodd" d="M49.1897 3.63475H65.9093C65.9093 5.90349 67.5133 7.61396 69.5294 7.61396V26.0015C67.5021 26.0015 65.9093 27.7001 65.9093 29.9807H49.1897V32.9265H72.4033V0.677063H49.1897V3.63475Z" fill="#9DB355"/>
<path fill-rule="evenodd" clip-rule="evenodd" d="M19.4819 16.8077C19.4819 19.3022 21.3978 21.2383 23.6368 21.2383C25.8757 21.2383 27.7916 19.3022 27.7916 16.8077C27.7916 14.3133 25.9871 12.3771 23.6368 12.3771C21.2864 12.3771 19.4819 14.4202 19.4819 16.8077Z" fill="#D2476A"/>
<path fill-rule="evenodd" clip-rule="evenodd" d="M60.6851 16.8077C60.6851 14.4202 58.7692 12.3771 56.43 12.3771C54.0908 12.3771 52.2751 14.4202 52.2751 16.8077C52.2751 19.1952 54.191 21.2383 56.43 21.2383C58.7692 21.2383 60.6851 19.3022 60.6851 16.8077Z" fill="#D2476A"/>
<path fill-rule="evenodd" clip-rule="evenodd" d="M32.47 0H47.6969V33.6036H40.3564H32.47V22.1411V0Z" fill="#9DB355"/>
<path fill-rule="evenodd" clip-rule="evenodd" d="M79.8553 42.5716C79.3206 41.0868 77.0817 40.1841 74.5309 40.4098C73.8959 40.5286 73.1385 40.7543 72.5036 40.9799C69.4181 41.8827 53.5562 47.7862 53.3446 47.905L53.0215 48.0237L53.2332 48.2494C55.0488 49.8411 55.8954 51.5397 55.4721 52.9057C54.9374 55.0675 52.3866 56.3148 48.0201 56.6592C44.2886 57.0037 39.4988 56.6592 33.8625 55.5189C34.4974 55.5189 35.2438 55.5189 35.8787 55.6377C39.9221 55.6377 43.7539 55.6377 46.7392 55.412C51.3173 54.9606 53.4448 53.8203 53.7678 52.003C53.8681 50.7557 53.2332 49.7342 51.6403 48.9384C49.8358 48.0356 46.3159 47.5724 42.8071 46.8953C40.4679 46.5508 38.229 46.2182 36.7364 45.7669C31.2003 44.1752 25.4526 42.7023 18.9586 43.1537C17.8893 43.3794 16.8311 43.4981 15.8731 43.7238C10.7603 44.6266 5.87032 45.8857 0.646151 47.4773L0.0112305 47.5842L7.67483 59.2843C9.05606 58.9399 10.4484 58.7142 11.8297 58.6073C13.6342 58.3816 15.3496 58.5004 16.9424 58.7142C19.1814 59.0586 24.3944 60.1871 29.5072 61.3274C34.7202 62.5746 39.7216 63.5961 41.6375 63.8218C42.8071 64.0475 43.7651 64.0475 44.9458 63.9287C47.3964 63.703 50.0586 62.2301 52.6094 60.8641C53.3557 60.294 54.2134 59.8426 54.8483 59.3912L77.6386 46.337C80.1895 44.7453 80.1895 43.2724 79.8664 42.5835L79.8553 42.5716Z" fill="#9DB355"/>
<path fill-rule="evenodd" clip-rule="evenodd" d="M39.287 22.248V17.366C37.9058 17.0215 36.8364 16.3445 36.2015 15.4298C35.5666 14.5271 35.1322 13.5056 35.1322 12.2583C35.1322 11.0111 35.5555 9.9896 36.3018 9.07498C37.0481 8.17223 38.006 7.70898 39.287 7.60207V6.46176H40.8799V7.60207C41.9492 7.70898 42.9072 8.17223 43.6535 8.84929C44.2995 9.52635 44.7228 10.441 44.9345 11.6882L42.1609 12.0327C41.9492 11.1299 41.6262 10.441 40.8799 10.2153V14.6459C42.5841 15.216 43.7537 15.8931 44.5 16.582C45.0347 17.3779 45.3466 18.5063 45.3466 19.7654C45.3466 21.1314 44.9233 22.2598 44.177 23.2814C43.3193 24.196 42.2611 24.7661 40.8687 24.9918V27.1537H39.2759V25.1106C37.9949 24.8849 37.0369 24.4335 36.2906 23.5189C35.4441 22.7231 34.9094 21.5946 34.6978 20.1099L37.5716 19.7773C37.6719 20.3474 37.8835 20.9176 38.2065 21.369C38.5296 21.8203 38.9528 22.046 39.2647 22.2717L39.287 22.248Z" fill="#D2476A"/>
<path fill-rule="evenodd" clip-rule="evenodd" d="M40.8799 22.3667C41.4146 22.248 41.8378 21.9154 42.1609 21.464C42.4839 21.1195 42.6955 20.5613 42.6955 19.9911C42.6955 19.5397 42.5841 19.0765 42.2723 18.6251C41.9604 18.2806 41.5259 18.0549 40.891 17.8293V22.3667H40.8799Z" fill="#9DB355"/>
<path fill-rule="evenodd" clip-rule="evenodd" d="M39.287 10.1084C38.8637 10.3341 38.5407 10.5598 38.2288 10.9042C38.0172 11.2368 37.9058 11.7001 37.9058 12.1515C37.9058 12.6028 38.0172 12.9473 38.2288 13.2918C38.4404 13.6362 38.8637 13.9688 39.287 14.0876V10.1084Z" fill="#9DB355"/>
</g>
<defs>
<clipPath id="clip0_2316_318">
<rect width="80" height="64" fill="white"/>
</clipPath>
</defs>
</svg>
