<svg width="24" height="25" viewBox="0 0 24 25" fill="none" xmlns="http://www.w3.org/2000/svg">
<g clip-path="url(#clip0_2705_2)">
<path d="M19 0.919922H5C2.239 0.919922 0 3.15892 0 5.91992V19.9199C0 22.6809 2.239 24.9199 5 24.9199H19C21.762 24.9199 24 22.6809 24 19.9199V5.91992C24 3.15892 21.762 0.919922 19 0.919922ZM8 19.9199H5V8.91992H8V19.9199ZM6.5 7.65192C5.534 7.65192 4.75 6.86192 4.75 5.88792C4.75 4.91392 5.534 4.12392 6.5 4.12392C7.466 4.12392 8.25 4.91392 8.25 5.88792C8.25 6.86192 7.467 7.65192 6.5 7.65192ZM20 19.9199H17V14.3159C17 10.9479 13 11.2029 13 14.3159V19.9199H10V8.91992H13V10.6849C14.396 8.09892 20 7.90792 20 13.1609V19.9199Z" fill="#9DB355"/>
</g>
<defs>
<clipPath id="clip0_2705_2">
<rect width="24" height="24" fill="white" transform="translate(0 0.919922)"/>
</clipPath>
</defs>
</svg>
