<svg width="24" height="24" viewBox="0 0 24 24" fill="none" xmlns="http://www.w3.org/2000/svg">
<path d="M19.5891 6.686C18.5904 6.47238 17.6861 5.94535 17.0079 5.18175C16.3298 4.41816 15.9133 3.45791 15.8191 2.441V2H12.3741V15.672C12.372 16.2773 12.1802 16.8667 11.8258 17.3574C11.4715 17.848 10.9722 18.2154 10.3983 18.4077C9.82442 18.6 9.20467 18.6077 8.62618 18.4297C8.04768 18.2516 7.53951 17.8968 7.17308 17.415C6.80096 16.9252 6.59454 16.3296 6.58375 15.7145C6.57295 15.0995 6.75835 14.497 7.11305 13.9944C7.46775 13.4918 7.97332 13.1153 8.55643 12.9194C9.13955 12.7235 9.7699 12.7185 10.3561 12.905V9.405C9.04894 9.2243 7.718 9.45669 6.54943 10.0697C5.38087 10.6826 4.43312 11.6455 3.83876 12.8237C3.2444 14.0018 3.03315 15.3363 3.23457 16.6404C3.43598 17.9445 4.03998 19.1531 4.96208 20.097C5.84144 20.9967 6.96897 21.6141 8.20074 21.8701C9.43251 22.1262 10.7126 22.0094 11.8777 21.5346C13.0428 21.0599 14.04 20.2487 14.742 19.2047C15.444 18.1606 15.819 16.9311 15.8191 15.673V8.687C17.2113 9.68234 18.8806 10.216 20.5921 10.213V6.79C20.255 6.79042 19.9189 6.75556 19.5891 6.686Z" fill="#9DB355"/>
</svg>
