<svg width="80" height="64" viewBox="0 0 80 64" fill="none" xmlns="http://www.w3.org/2000/svg">
<g clip-path="url(#clip0_2316_283)">
<path fill-rule="evenodd" clip-rule="evenodd" d="M26.6592 31.5871C27.3056 32.4129 28.1081 32.9107 29.0777 32.9221C24.5305 36.0106 21.7776 35.8296 20.9194 43.7037L40.1671 43.8395H40.3232L59.0916 43.9753C58.5009 36.2595 55.5809 35.9088 50.755 33.0804C51.8918 33.0804 53.0287 32.6053 53.8423 31.7907C51.0894 31.9378 49.6517 29.9579 49.3396 27.4916C48.8715 24.8556 48.7266 22.0725 48.5817 20.1039C48.2585 20.7601 47.7681 21.0882 47.2777 20.9072C46.4419 24.0184 43.845 26.6318 43.845 26.6318C43.845 27.4577 44.4803 29.0981 44.6363 29.7656C44.3131 30.4218 43.9788 30.9083 43.6556 31.2364C41.382 33.352 37.3363 33.1709 35.4193 29.8674C35.9097 28.8832 36.4001 27.4124 36.4112 26.5865C36.4112 26.5865 33.8367 24.2786 33.0565 20.8167C32.7333 20.8167 32.2541 20.4773 31.9309 19.9908C31.9197 21.801 31.7414 24.5841 31.2399 27.2088C30.8944 29.8335 29.5904 31.7907 26.6815 31.6097L26.6592 31.5871Z" fill="#9DB355"/>
<path fill-rule="evenodd" clip-rule="evenodd" d="M25.7118 4.50274L28.9439 5.50963L29.1111 5.02316H30.2368H30.3928L29.4232 5.33993L29.256 5.66802C29.256 5.66802 27.1273 9.43539 27.4393 11.4039C27.4393 11.4039 28.7322 12.0714 30.181 11.4266L30.5377 6.17713V5.84904L32.4769 5.37387L32.3098 5.70196L30.8498 6.18844L31.4962 6.35814L40.2117 8.55294L48.8046 6.47127L54.6447 4.70638L40.2897 0L25.7007 4.50274H25.7118Z" fill="#D2476A"/>
<path fill-rule="evenodd" clip-rule="evenodd" d="M33.7363 14.402C32.7556 15.3863 31.7859 15.5446 31.7859 14.3907C31.6299 13.7345 31.4739 13.2367 31.4739 12.5805V12.4108L31.485 10.7704V8.63214L40.2117 10.9966L48.8046 8.75659L48.7823 11.3813C48.9384 12.3656 48.9272 13.5195 48.76 14.6622C48.76 14.8206 48.5929 15.3184 48.4257 15.6465C48.2696 15.4881 48.1025 15.4768 47.9464 15.4768C47.6232 15.1487 47.4672 14.979 47.3 14.6509C47.0845 14.5377 46.9248 14.4812 46.8208 14.4812C45.1936 15.126 42.7751 15.4428 40.1783 15.4202C37.5814 15.3976 35.3301 15.0582 33.7252 14.3907L33.7363 14.402Z" fill="#9DB355"/>
<path fill-rule="evenodd" clip-rule="evenodd" d="M0.401291 35.5581C1.03657 35.0263 2.41857 35.3431 3.59995 36.1011C3.92316 36.3161 4.13492 36.6441 4.44699 36.8591C5.61723 38.262 11.9031 45.5139 11.9031 45.6157L12.1149 45.7288L11.9031 45.8306C10.6214 46.0456 9.77438 46.5886 9.56262 47.3466C9.23941 48.5345 10.1979 49.8356 12.2263 51.2498C13.9315 52.4377 16.3835 53.6256 19.3592 54.7004C19.1475 54.5985 18.7239 54.3723 18.4007 54.1573C16.4838 53.0712 14.5668 51.9965 13.1848 51.0235C11.0561 49.5075 10.3093 48.4327 10.7329 47.4598C10.9446 46.8036 11.4796 46.5886 12.5384 46.5886C13.6083 46.7018 15.4138 47.4598 17.3308 48.1046C18.6125 48.6477 19.7827 49.1907 20.6298 49.4057C23.717 50.2655 26.9156 51.1366 30.0029 53.2975C30.4264 53.6256 30.8499 53.9424 31.2845 54.3723C33.5247 56.2164 35.6535 58.2641 37.7822 60.5381L37.9939 60.753L31.1731 63.9887C30.6381 63.4569 30.0029 62.9139 29.3676 62.4727C28.5205 61.8278 27.6624 61.3866 26.8042 60.9567C25.6339 60.5268 22.7585 59.6556 19.9833 58.6827C17.1079 57.7097 14.4442 56.7368 13.3854 56.4087C12.8504 56.0806 12.3155 55.7525 11.7917 55.4357C10.6214 54.6777 9.76323 53.1617 8.9162 51.872C8.70444 51.329 8.38123 51.0009 8.16947 50.571L0.501598 38.047C-0.345435 36.531 0.0780814 35.8861 0.401291 35.5581Z" fill="#9DB355"/>
<path fill-rule="evenodd" clip-rule="evenodd" d="M79.6545 35.5581C79.0081 35.0263 77.6261 35.3431 76.5673 36.1011C76.2441 36.3161 75.8205 36.6441 75.6088 36.8591C74.3271 38.262 68.1527 45.5139 68.1527 45.6157L67.9409 45.7288L68.1527 45.8306C69.4344 46.0456 70.2814 46.5886 70.4932 47.3466C70.8164 48.5345 69.8579 49.8356 67.8295 51.2498C66.1243 52.4377 63.6723 53.6256 60.6854 54.7004C60.8972 54.5985 61.2204 54.3723 61.6439 54.1573C63.5609 53.0712 65.4778 51.9965 66.8598 51.0235C68.9886 49.5075 69.7353 48.4327 69.4121 47.4598C69.0889 46.8036 68.4536 46.5886 67.6066 46.5886C66.4363 46.7018 64.6197 47.4598 62.7027 48.1046C61.421 48.6477 60.3622 49.1907 59.4037 49.4057C56.3165 50.2655 53.1178 51.1366 50.1421 53.2975C49.6071 53.6256 49.0833 53.9424 48.7601 54.3723C46.5199 56.2164 44.3912 58.2641 42.3628 60.5381L42.0396 60.753L48.8604 63.9887C49.4957 63.4569 50.0306 62.9139 50.6659 62.4727C51.5129 61.8278 52.3711 61.3866 53.2293 60.9567C54.3995 60.5268 57.275 59.6556 60.0501 58.6827C62.9256 57.7097 65.5893 56.7368 66.5478 56.4087C67.183 56.0806 67.718 55.7525 68.253 55.4357C69.4232 54.6777 70.2703 53.1617 71.1284 51.872C71.4516 51.329 71.6634 51.0009 71.8752 50.571L79.543 38.0244C80.2898 36.5084 79.9665 35.8635 79.6545 35.5354V35.5581Z" fill="#9DB355"/>
</g>
<defs>
<clipPath id="clip0_2316_283">
<rect width="80" height="64" fill="white"/>
</clipPath>
</defs>
</svg>
