<svg width="80" height="64" viewBox="0 0 80 64" fill="none" xmlns="http://www.w3.org/2000/svg">
<g clip-path="url(#clip0_2420_834)">
<path fill-rule="evenodd" clip-rule="evenodd" d="M78.6398 40.8532C78.1133 39.2494 75.9084 38.2742 73.3964 38.518C72.7712 38.6463 72.0252 38.8901 71.4 39.1339C68.3614 40.109 52.741 46.4859 52.5326 46.6142L52.2145 46.7426L52.4229 46.9863C54.2109 48.7057 55.0446 50.5405 54.6277 52.016C54.1012 54.3512 51.5892 55.6984 47.2892 56.0705C43.6144 56.4426 38.8976 56.0705 33.3471 54.8388C33.9723 54.8388 34.7073 54.8388 35.3325 54.9671C39.3144 54.9671 43.0879 54.9671 46.0277 54.7233C50.5361 54.2357 52.6313 53.004 52.9494 51.0409C53.0481 49.6936 52.4229 48.5902 50.8543 47.7305C49.0772 46.7554 45.6109 46.255 42.1555 45.5236C39.8519 45.1515 37.6471 44.7923 36.1772 44.3047C30.7254 42.5854 25.0651 40.9944 18.67 41.4819C17.6169 41.7257 16.5748 41.854 15.6314 42.0978C10.5965 43.0729 5.7809 44.433 0.636243 46.1523L0.0109863 46.2678L7.55795 58.9061C8.91816 58.5341 10.2893 58.2903 11.6495 58.1748C13.4266 57.931 15.1159 58.0593 16.6845 58.2903C18.8894 58.6624 24.0231 59.8813 29.058 61.113C34.1917 62.4603 39.117 63.5637 41.0037 63.8075C42.1555 64.0513 43.0989 64.0513 44.2616 63.923C46.6749 63.6792 49.2966 62.0882 51.8086 60.6126C52.5435 59.9968 53.3882 59.5092 54.0135 59.0216L76.4569 44.9206C78.9689 43.2013 78.9689 41.6102 78.6508 40.8661L78.6398 40.8532Z" fill="#9DB355"/>
<path fill-rule="evenodd" clip-rule="evenodd" d="M13.7886 18.4122H4.66203C4.66203 17.0136 3.70769 15.9743 2.57784 15.9743V4.67039C3.70769 4.67039 4.66203 3.61827 4.66203 2.23254H13.9641V0.423401H0.965332V20.2341H13.4814L13.7776 18.425L13.7886 18.4122Z" fill="#9DB355"/>
<path fill-rule="evenodd" clip-rule="evenodd" d="M24.2205 2.23254H33.5774C33.5774 3.6311 34.4769 4.67039 35.6067 4.67039V15.9615C34.4769 15.9615 33.5774 17.0136 33.5774 18.3993H24.2205V20.2085H37.2192V0.423401H24.2205V2.23254Z" fill="#9DB355"/>
<path fill-rule="evenodd" clip-rule="evenodd" d="M7.59082 10.316C7.59082 11.8556 8.66582 13.0361 9.91634 13.0361C11.1669 13.0361 12.2419 11.8428 12.2419 10.316C12.2419 8.78909 11.2327 7.59583 9.91634 7.59583C8.60001 7.59583 7.59082 8.85324 7.59082 10.316Z" fill="#D2476A"/>
<path fill-rule="evenodd" clip-rule="evenodd" d="M30.6595 10.316C30.6595 8.85324 29.5845 7.59583 28.2791 7.59583C26.9738 7.59583 25.9536 8.85324 25.9536 10.316C25.9536 11.7787 27.0286 13.0361 28.2791 13.0361C29.5955 13.0361 30.6595 11.8428 30.6595 10.316Z" fill="#D2476A"/>
<path fill-rule="evenodd" clip-rule="evenodd" d="M14.8635 0H23.3868V20.6447H19.2732H14.8635V13.6006V0Z" fill="#9DB355"/>
<path fill-rule="evenodd" clip-rule="evenodd" d="M18.6809 13.6648V10.6624C17.902 10.4571 17.3097 10.0337 16.9477 9.46915C16.5857 8.91742 16.3553 8.28871 16.3553 7.51887C16.3553 6.74902 16.5967 6.12031 17.0135 5.56858C17.4303 5.01686 17.9678 4.73458 18.6809 4.6576V3.9519H19.5694V4.6576C20.1617 4.72175 20.6992 5.00403 21.1161 5.42745C21.4781 5.85086 21.7084 6.40259 21.8291 7.17243L20.2824 7.37773C20.1617 6.826 19.9862 6.40259 19.5694 6.26145V8.98158C20.5237 9.32801 21.1819 9.75142 21.5987 10.162C21.8949 10.6496 22.0704 11.3424 22.0704 12.1123C22.0704 12.9463 21.8291 13.652 21.4122 14.2679C20.9296 14.8324 20.3372 15.1788 19.5584 15.32V16.6416H18.6699V15.3841C17.9569 15.243 17.4194 14.9607 17.0025 14.409C16.5309 13.9214 16.2237 13.2286 16.114 12.3176L17.7265 12.1123C17.7814 12.4587 17.902 12.8052 18.0885 13.0874C18.264 13.3697 18.5053 13.5108 18.6809 13.6392V13.6648Z" fill="#D2476A"/>
<path fill-rule="evenodd" clip-rule="evenodd" d="M19.5696 13.7418C19.8657 13.6776 20.1071 13.4595 20.2826 13.1901C20.4581 12.9848 20.5788 12.6384 20.5788 12.2791C20.5788 11.9968 20.5239 11.7145 20.3374 11.4451C20.1619 11.2398 19.9206 11.0987 19.5586 10.9575V13.7418H19.5696Z" fill="#9DB355"/>
<path fill-rule="evenodd" clip-rule="evenodd" d="M18.6809 6.21008C18.4396 6.35122 18.2641 6.49236 18.0886 6.69765C17.9679 6.90295 17.9131 7.18522 17.9131 7.4675C17.9131 7.74978 17.9789 7.95507 18.0886 8.16036C18.2093 8.36566 18.4506 8.58378 18.6809 8.64793V6.21008Z" fill="#9DB355"/>
<path fill-rule="evenodd" clip-rule="evenodd" d="M56.5693 28.6768H47.4428C47.4428 27.2783 46.4884 26.239 45.3586 26.239V14.9479C46.4884 14.9479 47.4428 13.8957 47.4428 12.51H56.7449V10.7009H43.7461V30.5116H56.2622L56.5584 28.7025L56.5693 28.6768Z" fill="#9DB355"/>
<path fill-rule="evenodd" clip-rule="evenodd" d="M67.0012 12.4972H76.3581C76.3581 13.8958 77.2576 14.9351 78.3875 14.9351V26.2262C77.2576 26.2262 76.3581 27.2783 76.3581 28.664H67.0012V30.4732H80V10.6624H67.0012V12.4716V12.4972Z" fill="#9DB355"/>
<path fill-rule="evenodd" clip-rule="evenodd" d="M50.3716 20.5806C50.3716 22.1203 51.4466 23.3007 52.6971 23.3007C53.9476 23.3007 55.0226 22.1075 55.0226 20.5806C55.0226 19.0537 54.0134 17.8605 52.6971 17.8605C51.3808 17.8605 50.3716 19.1179 50.3716 20.5806Z" fill="#D2476A"/>
<path fill-rule="evenodd" clip-rule="evenodd" d="M73.4403 20.5806C73.4403 19.1179 72.3653 17.8605 71.0599 17.8605C69.7545 17.8605 68.7344 19.1179 68.7344 20.5806C68.7344 22.0433 69.8094 23.3007 71.0599 23.3007C72.3762 23.3007 73.4403 22.1075 73.4403 20.5806Z" fill="#D2476A"/>
<path fill-rule="evenodd" clip-rule="evenodd" d="M57.6443 10.2646H66.1675V30.9094H62.054H57.6443V23.8653V10.2646Z" fill="#9DB355"/>
<path fill-rule="evenodd" clip-rule="evenodd" d="M61.4616 23.9295V20.9271C60.6828 20.7218 60.0904 20.2983 59.7285 19.7338C59.3665 19.1821 59.1361 18.5534 59.1361 17.7835C59.1361 17.0137 59.3774 16.385 59.7943 15.8332C60.2111 15.2815 60.7486 14.9992 61.4616 14.9222V14.2166H62.3501V14.9222C62.9425 14.9864 63.48 15.2687 63.8968 15.6921C64.2588 16.1155 64.4892 16.6672 64.6098 17.4371L63.0632 17.6424C62.9425 17.0907 62.767 16.6672 62.3501 16.5261V19.2462C63.3045 19.5927 63.9626 20.0161 64.3795 20.4267C64.6757 20.9142 64.8512 21.6071 64.8512 22.3769C64.8512 23.2109 64.6098 23.9166 64.193 24.5325C63.7104 25.0971 63.118 25.4435 62.3392 25.5846V26.9062H61.4507V25.6488C60.7376 25.5077 60.2001 25.2254 59.7833 24.6736C59.3116 24.1861 59.0045 23.4932 58.8948 22.5822L60.5073 22.3769C60.5621 22.7234 60.6828 23.0698 60.8693 23.3521C61.0448 23.6344 61.2861 23.7755 61.4616 23.9038V23.9295Z" fill="#D2476A"/>
<path fill-rule="evenodd" clip-rule="evenodd" d="M62.3503 24.0064C62.6465 23.9423 62.8878 23.7242 63.0633 23.4547C63.2388 23.2494 63.3595 22.903 63.3595 22.5437C63.3595 22.2615 63.3047 21.9792 63.1182 21.7097C62.9427 21.5044 62.7013 21.3633 62.3394 21.2222V24.0064H62.3503Z" fill="#9DB355"/>
<path fill-rule="evenodd" clip-rule="evenodd" d="M61.4617 16.4747C61.2204 16.6159 61.0449 16.757 60.8694 16.9623C60.7487 17.1676 60.6938 17.4499 60.6938 17.7321C60.6938 18.0144 60.7597 18.2197 60.8694 18.425C60.99 18.6303 61.2313 18.8484 61.4617 18.9126V16.4747Z" fill="#9DB355"/>
</g>
<defs>
<clipPath id="clip0_2420_834">
<rect width="80" height="64" fill="white"/>
</clipPath>
</defs>
</svg>
