<svg width="24" height="24" viewBox="0 0 24 24" fill="none" xmlns="http://www.w3.org/2000/svg">
<g clip-path="url(#clip0_2312_85)">
<path d="M0.114014 24L1.80101 17.837C0.760014 16.033 0.213014 13.988 0.214014 11.891C0.217014 5.335 5.55201 0 12.107 0C15.288 0.001 18.274 1.24 20.52 3.488C22.765 5.736 24.001 8.724 24 11.902C23.997 18.459 18.662 23.794 12.107 23.794C10.117 23.793 8.15601 23.294 6.41901 22.346L0.114014 24ZM6.71101 20.193C8.38701 21.188 9.98701 21.784 12.103 21.785C17.551 21.785 21.989 17.351 21.992 11.9C21.994 6.438 17.577 2.01 12.111 2.008C6.65901 2.008 2.22401 6.442 2.22201 11.892C2.22101 14.117 2.87301 15.783 3.96801 17.526L2.96901 21.174L6.71101 20.193ZM18.098 14.729C18.024 14.605 17.826 14.531 17.528 14.382C17.231 14.233 15.77 13.514 15.497 13.415C15.225 13.316 15.027 13.266 14.828 13.564C14.63 13.861 14.06 14.531 13.887 14.729C13.714 14.927 13.54 14.952 13.243 14.803C12.946 14.654 11.988 14.341 10.853 13.328C9.97001 12.54 9.37301 11.567 9.20001 11.269C9.02701 10.972 9.18201 10.811 9.33001 10.663C9.46401 10.53 9.62701 10.316 9.77601 10.142C9.92701 9.97 9.97601 9.846 10.076 9.647C10.175 9.449 10.126 9.275 10.051 9.126C9.97601 8.978 9.38201 7.515 9.13501 6.92C8.89301 6.341 8.64801 6.419 8.46601 6.41L7.89601 6.4C7.69801 6.4 7.37601 6.474 7.10401 6.772C6.83201 7.07 6.06401 7.788 6.06401 9.251C6.06401 10.714 7.12901 12.127 7.27701 12.325C7.42601 12.523 9.37201 15.525 12.353 16.812C13.062 17.118 13.616 17.301 14.047 17.438C14.759 17.664 15.407 17.632 15.919 17.556C16.49 17.471 17.677 16.837 17.925 16.143C18.173 15.448 18.173 14.853 18.098 14.729Z" fill="#49B0D9"/>
</g>
<defs>
<clipPath id="clip0_2312_85">
<rect width="23.886" height="24" fill="white" transform="translate(0.114014)"/>
</clipPath>
</defs>
</svg>
