<svg width="267" height="44" viewBox="0 0 267 44" fill="none" xmlns="http://www.w3.org/2000/svg">
<path d="M19.9442 28.703L0 8.67065V19.723L19.9442 39.8777L39.8955 19.723V8.67065L19.9442 28.703Z" fill="#044D84"/>
<path d="M0 27.6597L12.0947 39.8777H0V27.6597Z" fill="#044D84"/>
<path d="M39.8955 27.6597L27.8008 39.8777H39.8955V27.6597Z" fill="#044D84"/>
<path fill-rule="evenodd" clip-rule="evenodd" d="M25.1439 15.4848L29.9163 11.4193L28.912 10.9156C28.4917 10.7501 28.5772 10.4911 28.741 9.90106L29.496 7.10919L26.7323 7.70642C26.3976 7.70642 26.2266 7.53373 26.2266 7.36104L25.8135 6.09462L23.6339 8.63465C23.292 9.05199 22.7079 9.05199 22.8788 8.12376L23.8048 2.87822L22.5441 3.5546C22.2093 3.72009 21.7107 3.3819 21.7107 3.3819L19.9513 0L18.1919 3.3819C18.021 3.80644 17.6862 3.72009 17.266 3.5546L16.0123 2.87822L17.0167 8.12376C17.1876 9.05199 16.5181 9.05199 16.2688 8.63465L14.0037 6.09462L13.6689 7.36104C13.6689 7.52653 13.4196 7.70642 13.1703 7.70642L10.4066 7.10919L11.1616 9.90106C11.3254 10.4983 11.4109 10.7501 10.9907 10.9156L9.98633 11.4193L14.7587 15.4848C14.9296 15.6575 15.0935 15.9093 15.008 16.1612L14.5877 17.6003C16.1762 17.4348 17.6862 17.2621 19.3601 17.0966C19.4456 17.0966 19.6949 17.1829 19.6949 17.3484L19.5239 19.723H20.279L20.1935 17.3484C20.1935 17.1829 20.3644 17.0966 20.5283 17.0966C22.2022 17.2693 23.6267 17.4348 25.3006 17.6003L24.8804 16.1612C24.7949 15.9093 24.8804 15.6575 25.1297 15.4848H25.1439Z" fill="#EE2B2C"/>
<path d="M68.5085 18.3486C68.5085 15.1826 68.5583 11.3977 68.6367 9.30381H68.4942C67.6751 13.1606 65.7875 20.0252 64.1849 25.2923H60.9368C59.7473 20.8526 57.8241 13.0383 57.0691 9.25344H56.9195C57.0762 11.4265 57.1545 15.456 57.1545 18.6652V25.2923H53.707V6.68463H59.3199C60.6376 11.0307 62.283 17.5211 62.7959 20.3418H62.8244C63.2233 17.9313 65.3317 11.0811 66.7135 6.68463H72.1127V25.2995H68.4942V18.3558L68.5085 18.3486Z" fill="#044D84"/>
<path d="M78.4735 19.8021C78.737 21.4931 79.8268 22.594 81.7927 22.594C83.894 22.594 84.6277 21.673 84.6277 20.3562C84.6277 18.6652 83.6162 17.9745 80.9522 17.2045C76.6856 16.0101 75.2254 14.463 75.2254 11.7719C75.2254 8.31804 77.9606 6.44 81.4722 6.44C85.8955 6.44 87.7618 8.76416 87.9754 11.7503H84.2858C84.0578 10.376 83.3954 9.33261 81.4366 9.33261C79.7841 9.33261 78.9721 10.1097 78.9721 11.3977C78.9721 12.7865 79.898 13.1822 82.505 13.9449C87.2062 15.3337 88.4456 17.2333 88.4456 19.9029C88.4456 22.9394 86.4511 25.5298 81.6289 25.5298C77.6045 25.5298 74.9975 23.4862 74.7695 19.7949H78.4806L78.4735 19.8021Z" fill="#044D84"/>
<path d="M101.381 6.68463V25.2995H97.627V6.68463H101.381Z" fill="#044D84"/>
<path d="M105.562 25.2923V6.68463H110.356C115.826 18.0248 116.709 19.8597 116.994 20.7447H117.044C116.859 18.5357 116.83 15.492 116.83 12.4555V6.68463H120.256V25.2995H115.655C109.786 12.8224 109.13 11.3473 108.86 10.6422H108.831C108.967 12.9951 108.981 16.2115 108.981 19.5359V25.2995H105.555L105.562 25.2923Z" fill="#044D84"/>
<path d="M126.724 19.8021C126.988 21.4931 128.078 22.594 130.044 22.594C132.145 22.594 132.879 21.673 132.879 20.3562C132.879 18.6652 131.867 17.9745 129.203 17.2045C124.937 16.0101 123.476 14.463 123.476 11.7719C123.476 8.31804 126.212 6.44 129.723 6.44C134.147 6.44 136.013 8.76416 136.226 11.7503H132.537C132.309 10.376 131.646 9.33261 129.688 9.33261C128.035 9.33261 127.223 10.1097 127.223 11.3977C127.223 12.7865 128.149 13.1822 130.756 13.9449C135.457 15.3337 136.697 17.2333 136.697 19.9029C136.697 22.9394 134.702 25.5298 129.88 25.5298C125.855 25.5298 123.248 23.4862 123.021 19.7949H126.732L126.724 19.8021Z" fill="#044D84"/>
<path d="M143.078 6.68463V18.5213C143.078 20.6224 143.648 22.5436 146.497 22.5436C149.346 22.5436 149.831 20.7087 149.831 18.5141V6.68463H153.62V18.6076C153.62 22.5076 151.982 25.5729 146.419 25.5729C140.856 25.5729 139.317 22.6084 139.317 18.6364V6.68463H143.078Z" fill="#044D84"/>
<path d="M161.284 17.6075V25.2995H157.595V6.68463H165.102C168.578 6.68463 171.064 8.42595 171.064 11.7215C171.064 14.2615 169.739 15.4776 168.201 16.0748C170.024 16.7872 170.687 18.2479 170.687 20.5576V21.0397C170.687 22.6875 170.779 24.2561 170.929 25.2995H167.31C167.047 24.5152 166.969 23.2703 166.969 20.975V20.4857C166.969 18.3558 166.199 17.6075 163.792 17.6075H161.284ZM161.284 14.5925H164.091C165.879 14.5925 167.346 14.1104 167.346 12.0525C167.346 10.3328 166.114 9.69956 164.611 9.69956H161.292V14.5997L161.284 14.5925Z" fill="#044D84"/>
<path d="M177.753 20.8742L176.456 25.2923H172.767C173.009 24.5655 178.13 7.50492 178.401 6.67743H183.259L189.178 25.2923H185.239L183.843 20.8742H177.76H177.753ZM183.095 17.737C181.948 13.9665 181.15 11.3042 180.737 9.56284H180.709C180.26 11.6352 179.427 14.535 178.465 17.737H183.102H183.095Z" fill="#044D84"/>
<path d="M191.457 25.2923V6.68463H196.251C201.721 18.0248 202.605 19.8597 202.89 20.7447H202.939C202.754 18.5357 202.726 15.492 202.726 12.4555V6.68463H206.152V25.2995H201.551C195.681 12.8224 195.026 11.3473 194.755 10.6422H194.727C194.862 12.9951 194.876 16.2115 194.876 19.5359V25.2995H191.45L191.457 25.2923Z" fill="#044D84"/>
<path d="M224.743 19.4351C224.244 22.5796 222.157 25.5657 217.427 25.5657C211.622 25.5657 209.535 21.2988 209.535 15.9885C209.535 10.6782 212.206 6.44 217.584 6.44C222.556 6.44 224.465 9.64921 224.643 12.5346H220.975C220.604 11.002 219.992 9.48372 217.463 9.48372C214.4 9.48372 213.396 12.6282 213.396 15.9741C213.396 19.5143 214.364 22.558 217.506 22.558C219.97 22.558 220.704 20.8383 221.053 19.4495H224.743V19.4351Z" fill="#044D84"/>
<path d="M239.166 17.1757H231.153V22.1838H240L239.551 25.2923H227.499V6.68463H239.508V9.82189H231.16V14.0385H239.173V17.1757H239.166Z" fill="#044D84"/>
<path d="M186.146 40.3612C185.605 40.3612 185.121 40.2755 184.692 40.104C184.264 39.9283 183.899 39.6861 183.599 39.3774C183.303 39.0688 183.076 38.7108 182.918 38.3036C182.759 37.8921 182.68 37.4548 182.68 36.9919V36.7347C182.68 36.2074 182.755 35.7251 182.905 35.2879C183.055 34.8506 183.269 34.4713 183.548 34.1498C183.831 33.8283 184.174 33.5818 184.577 33.4103C184.98 33.2345 185.434 33.1467 185.94 33.1467C186.433 33.1467 186.87 33.2281 187.251 33.391C187.633 33.5539 187.952 33.7854 188.21 34.0855C188.471 34.3855 188.668 34.7456 188.801 35.1657C188.934 35.5815 189 36.0445 189 36.5546V37.3262H183.471V36.0917H187.181V35.9502C187.181 35.693 187.134 35.4636 187.039 35.2622C186.949 35.0564 186.812 34.8935 186.628 34.7735C186.443 34.6535 186.208 34.5934 185.92 34.5934C185.676 34.5934 185.466 34.647 185.29 34.7542C185.115 34.8614 184.971 35.0114 184.859 35.2043C184.752 35.3972 184.671 35.6244 184.615 35.8859C184.564 36.1431 184.538 36.426 184.538 36.7347V36.9919C184.538 37.2705 184.577 37.5277 184.654 37.7635C184.735 37.9993 184.849 38.2029 184.995 38.3743C185.145 38.5458 185.325 38.6787 185.535 38.773C185.749 38.8673 185.991 38.9145 186.261 38.9145C186.596 38.9145 186.906 38.8502 187.194 38.7216C187.485 38.5887 187.736 38.3893 187.946 38.1236L188.846 39.1009C188.7 39.311 188.501 39.5125 188.248 39.7054C188 39.8983 187.699 40.0569 187.348 40.1812C186.996 40.3012 186.596 40.3612 186.146 40.3612Z" fill="#044D84"/>
<path d="M180.737 40.2326H178.872V32.658C178.872 32.1307 178.975 31.687 179.181 31.3269C179.391 30.9626 179.684 30.6882 180.062 30.5039C180.443 30.3153 180.895 30.2209 181.418 30.2209C181.59 30.2209 181.755 30.2338 181.914 30.2595C182.072 30.281 182.227 30.3088 182.377 30.3431L182.357 31.7385C182.276 31.717 182.19 31.702 182.1 31.6934C182.01 31.6849 181.905 31.6806 181.785 31.6806C181.562 31.6806 181.371 31.7192 181.213 31.7963C181.058 31.8692 180.941 31.9785 180.859 32.1243C180.778 32.27 180.737 32.4479 180.737 32.658V40.2326ZM182.126 33.2752V34.587H177.837V33.2752H182.126Z" fill="#044D84"/>
<path d="M176.847 33.2753V40.2326H174.989V33.2753H176.847ZM174.873 31.462C174.873 31.1919 174.967 30.969 175.156 30.7932C175.345 30.6175 175.598 30.5296 175.915 30.5296C176.228 30.5296 176.478 30.6175 176.667 30.7932C176.86 30.969 176.956 31.1919 176.956 31.462C176.956 31.732 176.86 31.9549 176.667 32.1307C176.478 32.3065 176.228 32.3943 175.915 32.3943C175.598 32.3943 175.345 32.3065 175.156 32.1307C174.967 31.9549 174.873 31.732 174.873 31.462Z" fill="#044D84"/>
<path d="M173.362 30.356V40.2326H171.504V30.356H173.362Z" fill="#044D84"/>
<path d="M160.932 35.2236L162.733 34.0597C162.999 33.884 163.177 33.7146 163.267 33.5517C163.357 33.3888 163.402 33.2067 163.402 33.0052C163.402 32.8037 163.327 32.6172 163.177 32.4458C163.026 32.27 162.816 32.1821 162.546 32.1821C162.353 32.1821 162.191 32.2271 162.058 32.3172C161.925 32.4029 161.824 32.5186 161.755 32.6644C161.691 32.8101 161.659 32.973 161.659 33.1531C161.659 33.346 161.71 33.5432 161.813 33.7446C161.916 33.9418 162.056 34.1519 162.231 34.3748C162.407 34.5934 162.602 34.8313 162.816 35.0885L167.234 40.2326H165.131L161.53 36.0659C161.226 35.6887 160.96 35.3436 160.733 35.0307C160.506 34.7134 160.328 34.4048 160.199 34.1047C160.071 33.8047 160.006 33.496 160.006 33.1788C160.006 32.6901 160.112 32.2636 160.322 31.8992C160.532 31.5305 160.827 31.2455 161.209 31.044C161.59 30.8382 162.038 30.7354 162.553 30.7354C163.037 30.7354 163.457 30.8361 163.813 31.0376C164.169 31.2348 164.443 31.4962 164.636 31.822C164.833 32.1478 164.932 32.5058 164.932 32.8959C164.932 33.1874 164.878 33.4574 164.771 33.7061C164.664 33.9504 164.516 34.1776 164.328 34.3876C164.139 34.5934 163.922 34.7842 163.678 34.9599L161.627 36.4196C161.468 36.5653 161.348 36.7089 161.267 36.8504C161.185 36.9918 161.13 37.1269 161.1 37.2555C161.07 37.3798 161.055 37.4998 161.055 37.6156C161.055 37.8642 161.108 38.0871 161.215 38.2843C161.323 38.4815 161.473 38.6358 161.665 38.7473C161.858 38.8587 162.083 38.9144 162.341 38.9144C162.692 38.9144 163.033 38.8373 163.363 38.683C163.693 38.5286 163.989 38.3079 164.25 38.0207C164.512 37.7292 164.72 37.3841 164.874 36.9854C165.028 36.5867 165.106 36.1474 165.106 35.6672H166.674C166.674 36.1474 166.627 36.6039 166.533 37.0369C166.439 37.4655 166.287 37.8642 166.076 38.2329C165.866 38.5972 165.588 38.9209 165.241 39.2038C165.215 39.2252 165.178 39.2574 165.131 39.3002C165.088 39.3388 165.052 39.3688 165.022 39.3903C164.61 39.7203 164.182 39.9668 163.736 40.1297C163.29 40.2883 162.793 40.3676 162.244 40.3676C161.618 40.3676 161.076 40.254 160.617 40.0268C160.163 39.7997 159.811 39.4867 159.563 39.0881C159.318 38.6894 159.196 38.2329 159.196 37.7184C159.196 37.3412 159.269 37.0133 159.415 36.7346C159.565 36.4517 159.771 36.1902 160.032 35.9502C160.294 35.7101 160.594 35.4679 160.932 35.2236Z" fill="#044D84"/>
<path d="M155.126 33.2752V34.587H151.075V33.2752H155.126ZM152.078 31.5584H153.93V38.1364C153.93 38.3379 153.956 38.4922 154.007 38.5994C154.063 38.7065 154.144 38.7816 154.252 38.8244C154.359 38.863 154.494 38.8823 154.657 38.8823C154.773 38.8823 154.875 38.878 154.965 38.8694C155.06 38.8566 155.139 38.8437 155.203 38.8309L155.21 40.194C155.051 40.2455 154.88 40.2862 154.695 40.3162C154.511 40.3462 154.307 40.3612 154.084 40.3612C153.677 40.3612 153.321 40.2948 153.017 40.1619C152.717 40.0247 152.486 39.8061 152.323 39.506C152.16 39.2059 152.078 38.8116 152.078 38.3229V31.5584Z" fill="#044D84"/>
<path d="M148.716 38.31C148.716 38.1772 148.677 38.0571 148.6 37.95C148.523 37.8428 148.38 37.7442 148.169 37.6542C147.964 37.5599 147.666 37.4741 147.276 37.397C146.924 37.3198 146.596 37.2234 146.292 37.1076C145.992 36.9876 145.73 36.844 145.507 36.6768C145.289 36.5096 145.117 36.3124 144.993 36.0852C144.869 35.8537 144.807 35.5901 144.807 35.2943C144.807 35.0028 144.869 34.7285 144.993 34.4713C145.122 34.2141 145.304 33.9869 145.54 33.7897C145.78 33.5882 146.071 33.4317 146.414 33.3203C146.761 33.2045 147.151 33.1467 147.584 33.1467C148.189 33.1467 148.707 33.2431 149.14 33.436C149.578 33.6289 149.912 33.8947 150.143 34.2334C150.379 34.5677 150.497 34.9492 150.497 35.3779H148.645C148.645 35.1979 148.607 35.0371 148.53 34.8957C148.457 34.7499 148.341 34.6363 148.182 34.5549C148.028 34.4691 147.827 34.4263 147.578 34.4263C147.372 34.4263 147.194 34.4627 147.044 34.5356C146.894 34.6042 146.778 34.6985 146.697 34.8185C146.62 34.9342 146.581 35.0628 146.581 35.2043C146.581 35.3115 146.603 35.4079 146.646 35.4937C146.693 35.5751 146.768 35.6501 146.871 35.7187C146.973 35.7873 147.106 35.8516 147.269 35.9116C147.436 35.9673 147.642 36.0188 147.887 36.0659C148.388 36.1688 148.836 36.3038 149.23 36.471C149.625 36.6339 149.938 36.8568 150.169 37.1398C150.401 37.4184 150.516 37.7849 150.516 38.2393C150.516 38.548 150.448 38.8309 150.311 39.0881C150.174 39.3453 149.976 39.5703 149.719 39.7632C149.462 39.9519 149.153 40.0998 148.793 40.2069C148.437 40.3098 148.037 40.3612 147.591 40.3612C146.943 40.3612 146.395 40.2455 145.945 40.014C145.499 39.7825 145.16 39.4889 144.929 39.1331C144.701 38.773 144.588 38.4043 144.588 38.0271H146.343C146.352 38.28 146.416 38.4837 146.536 38.638C146.661 38.7923 146.817 38.9038 147.006 38.9723C147.199 39.0409 147.406 39.0752 147.629 39.0752C147.869 39.0752 148.069 39.0431 148.227 38.9788C148.386 38.9102 148.506 38.8202 148.587 38.7087C148.673 38.593 148.716 38.4601 148.716 38.31Z" fill="#044D84"/>
<path d="M141.687 38.5672V33.2753H143.539V40.2326H141.797L141.687 38.5672ZM141.893 37.1398L142.44 37.1269C142.44 37.5899 142.386 38.0207 142.279 38.4194C142.172 38.8137 142.011 39.1567 141.797 39.4482C141.582 39.7354 141.312 39.9604 140.986 40.1233C140.661 40.2819 140.277 40.3612 139.835 40.3612C139.497 40.3612 139.184 40.3141 138.897 40.2198C138.614 40.1212 138.369 39.969 138.164 39.7632C137.962 39.5532 137.803 39.2853 137.688 38.9595C137.576 38.6294 137.521 38.2329 137.521 37.7699V33.2753H139.372V37.7828C139.372 37.9885 139.396 38.1621 139.443 38.3036C139.495 38.4451 139.565 38.5608 139.655 38.6508C139.745 38.7409 139.85 38.8052 139.97 38.8437C140.095 38.8823 140.232 38.9016 140.382 38.9016C140.763 38.9016 141.063 38.8244 141.282 38.6701C141.505 38.5158 141.661 38.3058 141.752 38.04C141.846 37.7699 141.893 37.4698 141.893 37.1398Z" fill="#044D84"/>
<path d="M134.602 34.7928V40.2326H132.75V33.2753H134.493L134.602 34.7928ZM136.698 33.2303L136.666 34.9471C136.576 34.9342 136.467 34.9235 136.338 34.9149C136.214 34.9021 136.1 34.8957 135.997 34.8957C135.736 34.8957 135.509 34.9299 135.316 34.9985C135.127 35.0628 134.968 35.1593 134.84 35.2879C134.715 35.4165 134.621 35.573 134.557 35.7573C134.497 35.9416 134.463 36.1517 134.454 36.3874L134.081 36.2717C134.081 35.8216 134.126 35.4079 134.216 35.0307C134.306 34.6492 134.437 34.3169 134.608 34.034C134.784 33.7511 134.998 33.5325 135.251 33.3782C135.504 33.2238 135.794 33.1467 136.119 33.1467C136.222 33.1467 136.327 33.1552 136.434 33.1724C136.542 33.1852 136.629 33.2045 136.698 33.2303Z" fill="#044D84"/>
<path d="M131.695 33.2752V34.587H127.645V33.2752H131.695ZM128.648 31.5584H130.499V38.1364C130.499 38.3379 130.525 38.4922 130.577 38.5994C130.632 38.7065 130.714 38.7816 130.821 38.8244C130.928 38.863 131.063 38.8823 131.226 38.8823C131.342 38.8823 131.445 38.878 131.535 38.8694C131.629 38.8566 131.708 38.8437 131.773 38.8309L131.779 40.194C131.62 40.2455 131.449 40.2862 131.265 40.3162C131.08 40.3462 130.877 40.3612 130.654 40.3612C130.247 40.3612 129.891 40.2948 129.586 40.1619C129.286 40.0247 129.055 39.8061 128.892 39.506C128.729 39.2059 128.648 38.8116 128.648 38.3229V31.5584Z" fill="#044D84"/>
<path d="M122.036 34.7928V40.2326H120.185V33.2753H121.927L122.036 34.7928ZM124.133 33.2303L124.101 34.9471C124.01 34.9342 123.901 34.9235 123.773 34.9149C123.648 34.9021 123.535 34.8957 123.432 34.8957C123.17 34.8957 122.943 34.9299 122.75 34.9985C122.562 35.0628 122.403 35.1593 122.274 35.2879C122.15 35.4165 122.056 35.573 121.991 35.7573C121.931 35.9416 121.897 36.1517 121.889 36.3874L121.516 36.2717C121.516 35.8216 121.561 35.4079 121.651 35.0307C121.741 34.6492 121.871 34.3169 122.043 34.034C122.219 33.7511 122.433 33.5325 122.686 33.3782C122.939 33.2238 123.228 33.1467 123.554 33.1467C123.657 33.1467 123.762 33.1552 123.869 33.1724C123.976 33.1852 124.064 33.2045 124.133 33.2303Z" fill="#044D84"/>
<path d="M116.919 38.5672V33.2753H118.771V40.2326H117.028L116.919 38.5672ZM117.124 37.1398L117.671 37.1269C117.671 37.5899 117.617 38.0207 117.51 38.4194C117.403 38.8137 117.242 39.1567 117.028 39.4482C116.814 39.7354 116.544 39.9604 116.218 40.1233C115.892 40.2819 115.508 40.3612 115.067 40.3612C114.728 40.3612 114.415 40.3141 114.128 40.2198C113.845 40.1212 113.601 39.969 113.395 39.7632C113.193 39.5532 113.035 39.2853 112.919 38.9595C112.808 38.6294 112.752 38.2329 112.752 37.7699V33.2753H114.604V37.7828C114.604 37.9885 114.627 38.1621 114.675 38.3036C114.726 38.4451 114.797 38.5608 114.887 38.6508C114.977 38.7409 115.082 38.8052 115.202 38.8437C115.326 38.8823 115.463 38.9016 115.613 38.9016C115.995 38.9016 116.295 38.8244 116.514 38.6701C116.736 38.5158 116.893 38.3058 116.983 38.04C117.077 37.7699 117.124 37.4698 117.124 37.1398Z" fill="#044D84"/>
<path d="M105.074 36.8247V36.6897C105.074 36.1795 105.147 35.7101 105.293 35.2815C105.439 34.8485 105.651 34.4734 105.929 34.1562C106.208 33.839 106.551 33.5925 106.958 33.4167C107.365 33.2367 107.833 33.1467 108.36 33.1467C108.887 33.1467 109.357 33.2367 109.768 33.4167C110.18 33.5925 110.525 33.839 110.803 34.1562C111.086 34.4734 111.301 34.8485 111.446 35.2815C111.592 35.7101 111.665 36.1795 111.665 36.6897V36.8247C111.665 37.3305 111.592 37.7999 111.446 38.2329C111.301 38.6616 111.086 39.0366 110.803 39.3581C110.525 39.6754 110.182 39.9219 109.775 40.0976C109.367 40.2734 108.9 40.3612 108.373 40.3612C107.846 40.3612 107.376 40.2734 106.965 40.0976C106.557 39.9219 106.212 39.6754 105.929 39.3581C105.651 39.0366 105.439 38.6616 105.293 38.2329C105.147 37.7999 105.074 37.3305 105.074 36.8247ZM106.926 36.6897V36.8247C106.926 37.1162 106.952 37.3884 107.003 37.6413C107.055 37.8942 107.136 38.1171 107.248 38.31C107.363 38.4987 107.513 38.6465 107.698 38.7537C107.882 38.8609 108.107 38.9145 108.373 38.9145C108.63 38.9145 108.851 38.8609 109.035 38.7537C109.219 38.6465 109.367 38.4987 109.479 38.31C109.59 38.1171 109.672 37.8942 109.723 37.6413C109.779 37.3884 109.807 37.1162 109.807 36.8247V36.6897C109.807 36.4067 109.779 36.141 109.723 35.8923C109.672 35.6394 109.588 35.4165 109.472 35.2236C109.361 35.0264 109.213 34.8721 109.029 34.7606C108.844 34.6492 108.621 34.5934 108.36 34.5934C108.099 34.5934 107.876 34.6492 107.691 34.7606C107.511 34.8721 107.363 35.0264 107.248 35.2236C107.136 35.4165 107.055 35.6394 107.003 35.8923C106.952 36.141 106.926 36.4067 106.926 36.6897Z" fill="#044D84"/>
<path d="M100.901 39.4482L102.747 33.2753H104.733L101.936 41.2807C101.876 41.4565 101.795 41.6451 101.692 41.8466C101.593 42.0481 101.458 42.2388 101.287 42.4189C101.12 42.6032 100.908 42.7532 100.65 42.869C100.397 42.9847 100.087 43.0426 99.718 43.0426C99.5422 43.0426 99.3986 43.0319 99.2871 43.0104C99.1757 42.989 99.0428 42.959 98.8885 42.9204V41.5637C98.9356 41.5637 98.9849 41.5637 99.0364 41.5637C99.0878 41.568 99.1371 41.5701 99.1843 41.5701C99.4286 41.5701 99.6279 41.5422 99.7823 41.4865C99.9366 41.4308 100.061 41.345 100.155 41.2293C100.25 41.1179 100.325 40.9721 100.38 40.7921L100.901 39.4482ZM100.129 33.2753L101.641 38.3165L101.904 40.2777L100.644 40.4127L98.1426 33.2753H100.129Z" fill="#044D84"/>
<path d="M91.6484 40.3612C91.1083 40.3612 90.6239 40.2755 90.1952 40.104C89.7666 39.9283 89.4022 39.6861 89.1021 39.3774C88.8063 39.0688 88.5791 38.7108 88.4205 38.3036C88.2619 37.8921 88.1826 37.4548 88.1826 36.9919V36.7347C88.1826 36.2074 88.2576 35.7251 88.4077 35.2879C88.5577 34.8506 88.772 34.4713 89.0507 34.1498C89.3336 33.8283 89.6765 33.5818 90.0795 33.4103C90.4825 33.2345 90.9368 33.1467 91.4427 33.1467C91.9357 33.1467 92.3729 33.2281 92.7544 33.391C93.1359 33.5539 93.4553 33.7854 93.7125 34.0855C93.974 34.3855 94.1712 34.7456 94.3041 35.1657C94.437 35.5815 94.5034 36.0445 94.5034 36.5546V37.3262H88.9735V36.0917H92.6837V35.9502C92.6837 35.693 92.6365 35.4636 92.5422 35.2622C92.4522 35.0564 92.315 34.8935 92.1307 34.7735C91.9464 34.6535 91.7106 34.5934 91.4234 34.5934C91.179 34.5934 90.969 34.647 90.7932 34.7542C90.6175 34.8614 90.4739 35.0114 90.3624 35.2043C90.2553 35.3972 90.1738 35.6244 90.1181 35.8859C90.0666 36.1431 90.0409 36.426 90.0409 36.7347V36.9919C90.0409 37.2705 90.0795 37.5277 90.1567 37.7635C90.2381 37.9993 90.3517 38.2029 90.4975 38.3743C90.6475 38.5458 90.8275 38.6787 91.0376 38.773C91.2519 38.8673 91.4941 38.9145 91.7642 38.9145C92.0985 38.9145 92.4093 38.8502 92.6965 38.7216C92.988 38.5887 93.2388 38.3893 93.4489 38.1236L94.3491 39.1009C94.2033 39.311 94.004 39.5125 93.7511 39.7054C93.5025 39.8983 93.2024 40.0569 92.8509 40.1812C92.4994 40.3012 92.0985 40.3612 91.6484 40.3612Z" fill="#044D84"/>
<path d="M85.6038 34.7928V40.2326H83.752V33.2753H85.4945L85.6038 34.7928ZM87.7 33.2303L87.6679 34.9471C87.5779 34.9342 87.4686 34.9235 87.34 34.9149C87.2156 34.9021 87.102 34.8957 86.9992 34.8957C86.7377 34.8957 86.5105 34.9299 86.3176 34.9985C86.1289 35.0628 85.9703 35.1593 85.8417 35.2879C85.7174 35.4165 85.6231 35.573 85.5588 35.7573C85.4988 35.9416 85.4645 36.1517 85.4559 36.3874L85.083 36.2717C85.083 35.8216 85.128 35.4079 85.218 35.0307C85.308 34.6492 85.4388 34.3169 85.6103 34.034C85.786 33.7511 86.0003 33.5325 86.2533 33.3782C86.5062 33.2238 86.7955 33.1467 87.1213 33.1467C87.2242 33.1467 87.3292 33.1552 87.4364 33.1724C87.5436 33.1852 87.6314 33.2045 87.7 33.2303Z" fill="#044D84"/>
<path d="M80.4851 38.5672V33.2753H82.3369V40.2326H80.5944L80.4851 38.5672ZM80.6908 37.1398L81.2374 37.1269C81.2374 37.5899 81.1838 38.0207 81.0766 38.4194C80.9695 38.8137 80.8087 39.1567 80.5944 39.4482C80.38 39.7354 80.11 39.9604 79.7842 40.1233C79.4584 40.2819 79.0747 40.3612 78.6332 40.3612C78.2945 40.3612 77.9816 40.3141 77.6944 40.2198C77.4115 40.1212 77.1671 39.969 76.9614 39.7632C76.7599 39.5532 76.6013 39.2853 76.4855 38.9595C76.3741 38.6294 76.3184 38.2329 76.3184 37.7699V33.2753H78.1702V37.7828C78.1702 37.9885 78.1938 38.1621 78.241 38.3036C78.2924 38.4451 78.3631 38.5608 78.4532 38.6508C78.5432 38.7409 78.6482 38.8052 78.7682 38.8437C78.8925 38.8823 79.0297 38.9016 79.1798 38.9016C79.5613 38.9016 79.8613 38.8244 80.08 38.6701C80.3029 38.5158 80.4593 38.3058 80.5494 38.04C80.6437 37.7699 80.6908 37.4698 80.6908 37.1398Z" fill="#044D84"/>
<path d="M72.3771 38.9145C72.6043 38.9145 72.8057 38.8716 72.9815 38.7859C73.1573 38.6958 73.2944 38.5715 73.393 38.4129C73.4959 38.25 73.5495 38.0593 73.5538 37.8406H75.2963C75.2921 38.3293 75.1613 38.7644 74.9041 39.146C74.6469 39.5232 74.3018 39.8211 73.8689 40.0397C73.4359 40.2541 72.9515 40.3612 72.4157 40.3612C71.8755 40.3612 71.404 40.2712 71.001 40.0912C70.6024 39.9111 70.2701 39.6625 70.0044 39.3453C69.7386 39.0238 69.5393 38.6508 69.4064 38.2264C69.2735 37.7978 69.207 37.3391 69.207 36.8504V36.6639C69.207 36.171 69.2735 35.7123 69.4064 35.2879C69.5393 34.8592 69.7386 34.4863 70.0044 34.1691C70.2701 33.8475 70.6024 33.5968 71.001 33.4167C71.3997 33.2367 71.867 33.1467 72.4028 33.1467C72.9729 33.1467 73.4723 33.256 73.901 33.4746C74.334 33.6932 74.6726 34.0062 74.917 34.4134C75.1656 34.8164 75.2921 35.2943 75.2963 35.8473H73.5538C73.5495 35.6158 73.5002 35.4058 73.4059 35.2172C73.3159 35.0285 73.183 34.8785 73.0072 34.7671C72.8358 34.6513 72.6236 34.5934 72.3706 34.5934C72.1006 34.5934 71.8798 34.6513 71.7083 34.7671C71.5369 34.8785 71.404 35.0328 71.3097 35.23C71.2154 35.4229 71.1489 35.6437 71.1103 35.8923C71.076 36.1367 71.0589 36.3939 71.0589 36.6639V36.8504C71.0589 37.1205 71.076 37.3798 71.1103 37.6284C71.1446 37.8771 71.2089 38.0978 71.3032 38.2907C71.4018 38.4837 71.5369 38.6358 71.7083 38.7473C71.8798 38.8587 72.1027 38.9145 72.3771 38.9145Z" fill="#044D84"/>
<path d="M65.5938 40.3612C65.0536 40.3612 64.5692 40.2755 64.1406 40.104C63.7119 39.9283 63.3475 39.6861 63.0474 39.3774C62.7516 39.0688 62.5245 38.7108 62.3658 38.3036C62.2072 37.8921 62.1279 37.4548 62.1279 36.9919V36.7347C62.1279 36.2074 62.2029 35.7251 62.353 35.2879C62.503 34.8506 62.7174 34.4713 62.996 34.1498C63.2789 33.8283 63.6219 33.5818 64.0248 33.4103C64.4278 33.2345 64.8822 33.1467 65.388 33.1467C65.881 33.1467 66.3182 33.2281 66.6997 33.391C67.0813 33.5539 67.4006 33.7854 67.6578 34.0855C67.9193 34.3855 68.1165 34.7456 68.2494 35.1657C68.3823 35.5815 68.4487 36.0445 68.4487 36.5546V37.3262H62.9188V36.0917H66.629V35.9502C66.629 35.693 66.5818 35.4636 66.4875 35.2622C66.3975 35.0564 66.2603 34.8935 66.076 34.7735C65.8917 34.6535 65.6559 34.5934 65.3687 34.5934C65.1244 34.5934 64.9143 34.647 64.7386 34.7542C64.5628 34.8614 64.4192 35.0114 64.3077 35.2043C64.2006 35.3972 64.1191 35.6244 64.0634 35.8859C64.0119 36.1431 63.9862 36.426 63.9862 36.7347V36.9919C63.9862 37.2705 64.0248 37.5277 64.102 37.7635C64.1834 37.9993 64.297 38.2029 64.4428 38.3743C64.5928 38.5458 64.7728 38.6787 64.9829 38.773C65.1972 38.8673 65.4394 38.9145 65.7095 38.9145C66.0439 38.9145 66.3547 38.8502 66.6419 38.7216C66.9334 38.5887 67.1841 38.3893 67.3942 38.1236L68.2944 39.1009C68.1486 39.311 67.9493 39.5125 67.6964 39.7054C67.4478 39.8983 67.1477 40.0569 66.7962 40.1812C66.4447 40.3012 66.0439 40.3612 65.5938 40.3612Z" fill="#044D84"/>
<path d="M59.2663 37.7827C59.2663 37.6155 59.2405 37.4655 59.1891 37.3326C59.1419 37.1954 59.0519 37.0711 58.919 36.9597C58.7861 36.8439 58.5997 36.7303 58.3596 36.6189C58.1196 36.5074 57.8088 36.3917 57.4272 36.2716C57.0029 36.1345 56.5999 35.9802 56.2184 35.8087C55.8412 35.6372 55.5068 35.4379 55.2153 35.2107C54.9281 34.9792 54.7009 34.7113 54.5337 34.4069C54.3708 34.1026 54.2894 33.7489 54.2894 33.346C54.2894 32.9559 54.3751 32.6022 54.5466 32.285C54.718 31.9635 54.9581 31.6891 55.2667 31.4619C55.5754 31.2304 55.9397 31.0525 56.3598 30.9282C56.7842 30.8039 57.2493 30.7418 57.7552 30.7418C58.4453 30.7418 59.0476 30.8661 59.562 31.1147C60.0764 31.3633 60.4751 31.7041 60.758 32.1371C61.0452 32.5701 61.1889 33.0652 61.1889 33.6224H59.2727C59.2727 33.3481 59.2148 33.108 59.0991 32.9023C58.9876 32.6922 58.8161 32.5272 58.5847 32.4072C58.3575 32.2871 58.0703 32.2271 57.723 32.2271C57.3887 32.2271 57.11 32.2786 56.8871 32.3814C56.6642 32.48 56.497 32.6151 56.3856 32.7865C56.2741 32.9537 56.2184 33.1423 56.2184 33.3524C56.2184 33.511 56.257 33.6546 56.3341 33.7832C56.4156 33.9118 56.5356 34.0318 56.6942 34.1433C56.8528 34.2547 57.0479 34.3598 57.2794 34.4584C57.5108 34.557 57.7788 34.6534 58.0831 34.7477C58.5932 34.902 59.0412 35.0756 59.427 35.2686C59.8171 35.4615 60.1429 35.6779 60.4044 35.918C60.6659 36.158 60.8631 36.4303 60.996 36.7346C61.1288 37.039 61.1953 37.3841 61.1953 37.7699C61.1953 38.1771 61.116 38.5415 60.9574 38.863C60.7988 39.1845 60.5694 39.4567 60.2693 39.6796C59.9693 39.9025 59.6113 40.0718 59.1955 40.1876C58.7797 40.3033 58.3146 40.3612 57.8002 40.3612C57.3372 40.3612 56.8807 40.3012 56.4306 40.1812C55.9805 40.0568 55.5711 39.8704 55.2024 39.6217C54.8381 39.3731 54.5466 39.0559 54.3279 38.6701C54.1093 38.2843 54 37.8277 54 37.3005H55.9355C55.9355 37.592 55.9805 37.8385 56.0705 38.0399C56.1605 38.2414 56.287 38.4043 56.4499 38.5286C56.6171 38.6529 56.8142 38.743 57.0414 38.7987C57.2729 38.8544 57.5258 38.8823 57.8002 38.8823C58.1346 38.8823 58.4089 38.8351 58.6232 38.7408C58.8419 38.6465 59.0026 38.5158 59.1055 38.3486C59.2127 38.1814 59.2663 37.9928 59.2663 37.7827Z" fill="#044D84"/>
<path d="M264.138 25.0273C264.138 24.7349 264.238 24.4904 264.439 24.2939C264.645 24.0974 264.917 23.9991 265.255 23.9991C265.593 23.9991 265.863 24.0974 266.064 24.2939C266.269 24.4904 266.372 24.7349 266.372 25.0273C266.372 25.3198 266.269 25.5642 266.064 25.7607C265.863 25.9572 265.593 26.0555 265.255 26.0555C264.917 26.0555 264.645 25.9572 264.439 25.7607C264.238 25.5642 264.138 25.3198 264.138 25.0273Z" fill="#044D84"/>
<path d="M259.786 24.5749C260.028 24.5749 260.242 24.5292 260.43 24.4378C260.617 24.3419 260.763 24.2093 260.869 24.0403C260.978 23.8666 261.035 23.6633 261.04 23.4302H262.897C262.893 23.9512 262.753 24.415 262.479 24.8217C262.205 25.2238 261.837 25.5414 261.376 25.7744C260.914 26.0029 260.398 26.1172 259.827 26.1172C259.251 26.1172 258.748 26.0212 258.319 25.8293C257.894 25.6373 257.54 25.3723 257.256 25.0342C256.973 24.6914 256.76 24.2939 256.619 23.8415C256.477 23.3845 256.406 22.8956 256.406 22.3746V22.1758C256.406 21.6503 256.477 21.1614 256.619 20.709C256.76 20.252 256.973 19.8545 257.256 19.5163C257.54 19.1736 257.894 18.9063 258.319 18.7143C258.744 18.5224 259.242 18.4265 259.813 18.4265C260.421 18.4265 260.953 18.543 261.41 18.776C261.872 19.0091 262.233 19.3427 262.493 19.7768C262.758 20.2063 262.893 20.7158 262.897 21.3053H261.04C261.035 21.0586 260.983 20.8347 260.882 20.6336C260.786 20.4325 260.645 20.2726 260.457 20.1538C260.274 20.0304 260.048 19.9687 259.779 19.9687C259.491 19.9687 259.255 20.0304 259.073 20.1538C258.89 20.2726 258.748 20.4371 258.648 20.6473C258.547 20.8529 258.476 21.0883 258.435 21.3533C258.399 21.6138 258.38 21.888 258.38 22.1758V22.3746C258.38 22.6625 258.399 22.939 258.435 23.204C258.472 23.4691 258.54 23.7044 258.641 23.91C258.746 24.1157 258.89 24.2779 259.073 24.3967C259.255 24.5155 259.493 24.5749 259.786 24.5749Z" fill="#044D84"/>
<path d="M250.786 20.1469V25.9801H248.812V18.5635H250.662L250.786 20.1469ZM250.498 22.0113H249.963C249.963 21.463 250.034 20.9695 250.176 20.5308C250.317 20.0875 250.516 19.7105 250.772 19.3998C251.028 19.0845 251.332 18.8446 251.684 18.6801C252.04 18.511 252.438 18.4265 252.876 18.4265C253.224 18.4265 253.541 18.4767 253.829 18.5773C254.117 18.6778 254.364 18.8377 254.569 19.0571C254.779 19.2764 254.939 19.5666 255.049 19.9276C255.163 20.2886 255.22 20.7296 255.22 21.2505V25.9801H253.233V21.2436C253.233 20.9146 253.187 20.6587 253.096 20.4759C253.004 20.2932 252.869 20.1652 252.691 20.0921C252.518 20.0144 252.303 19.9756 252.047 19.9756C251.782 19.9756 251.551 20.0281 251.355 20.1332C251.163 20.2383 251.003 20.3845 250.875 20.5719C250.751 20.7547 250.658 20.9695 250.594 21.2162C250.53 21.463 250.498 21.728 250.498 22.0113Z" fill="#044D84"/>
<path d="M247.049 16V25.9801H245V16H247.049Z" fill="#044D84"/>
</svg>
