<svg width="348" height="58" viewBox="0 0 348 58" fill="none" xmlns="http://www.w3.org/2000/svg">
<path d="M26.056 38.2164L0 11.5444V26.26L26.056 53.0948L52.1212 26.26V11.5444L26.056 38.2164Z" fill="white"/>
<path d="M0 36.8272L15.8011 53.0948H0V36.8272Z" fill="white"/>
<path d="M52.1214 36.8272L36.3203 53.0948H52.1214V36.8272Z" fill="white"/>
<path fill-rule="evenodd" clip-rule="evenodd" d="M32.8494 20.6171L39.0842 15.2042L37.7721 14.5335C37.2231 14.3132 37.3347 13.9683 37.5488 13.1827L38.5352 9.46548L34.9246 10.2607C34.4872 10.2607 34.2639 10.0307 34.2639 9.8008L33.7241 8.11464L30.8766 11.4965C30.4299 12.0522 29.6668 12.0522 29.8902 10.8163L31.0999 3.83218L29.4528 4.73274C29.0155 4.95309 28.3641 4.50281 28.3641 4.50281L26.0655 0L23.767 4.50281C23.5437 5.06806 23.1063 4.95309 22.5573 4.73274L20.9195 3.83218L22.2316 10.8163C22.4549 12.0522 21.5802 12.0522 21.2545 11.4965L18.2953 8.11464L17.8579 9.8008C17.8579 10.0211 17.5322 10.2607 17.2065 10.2607L13.5959 9.46548L14.5823 13.1827C14.7963 13.9779 14.908 14.3132 14.359 14.5335L13.0469 15.2042L19.2817 20.6171C19.505 20.8471 19.7191 21.1824 19.6074 21.5177L19.0584 23.4338C21.1335 23.2134 23.1063 22.9835 25.2932 22.7631C25.4048 22.7631 25.7305 22.8781 25.7305 23.0985L25.5072 26.26H26.4936L26.3819 23.0985C26.3819 22.8781 26.6053 22.7631 26.8193 22.7631C29.0061 22.9931 30.8673 23.2134 33.0541 23.4338L32.5051 21.5177C32.3934 21.1824 32.5051 20.8471 32.8308 20.6171H32.8494Z" fill="white"/>
<path d="M89.5023 24.4301C89.5023 20.2147 89.5674 15.1754 89.6698 12.3875H89.4837C88.4135 17.5226 85.9475 26.6624 83.8537 33.6753H79.6103C78.0563 27.7641 75.5437 17.3598 74.5573 12.3205H74.3619C74.5666 15.2138 74.669 20.5788 74.669 24.8517V33.6753H70.165V8.90024H77.4979C79.2195 14.6868 81.3691 23.3284 82.0391 27.0839H82.0763C82.5974 23.8745 85.3519 14.7539 87.1572 8.90024H94.211V33.6849H89.4837V24.4397L89.5023 24.4301Z" fill="white"/>
<path d="M102.521 26.3654C102.865 28.6168 104.289 30.0826 106.857 30.0826C109.602 30.0826 110.561 28.8563 110.561 27.1031C110.561 24.8517 109.239 23.932 105.759 22.9068C100.185 21.3165 98.2772 19.2567 98.2772 15.6736C98.2772 11.075 101.851 8.5745 106.438 8.5745C112.217 8.5745 114.655 11.669 114.934 15.6449H110.114C109.816 13.815 108.951 12.4258 106.392 12.4258C104.233 12.4258 103.172 13.4605 103.172 15.1754C103.172 17.0245 104.382 17.5514 107.788 18.5669C113.929 20.4159 115.549 22.9452 115.549 26.4995C115.549 30.5425 112.943 33.9914 106.643 33.9914C101.385 33.9914 97.9794 31.2706 97.6816 26.3558H102.53L102.521 26.3654Z" fill="white"/>
<path d="M132.448 8.90024V33.6849H127.544V8.90024H132.448Z" fill="white"/>
<path d="M137.911 33.6753V8.90024H144.173C151.32 23.999 152.474 26.442 152.846 27.6204H152.911C152.67 24.6792 152.632 20.6267 152.632 16.5838V8.90024H157.108V33.6849H151.097C143.429 17.0724 142.573 15.1084 142.219 14.1695H142.182C142.359 17.3023 142.377 21.5848 142.377 26.0109V33.6849H137.901L137.911 33.6753Z" fill="white"/>
<path d="M165.558 26.3654C165.902 28.6168 167.326 30.0826 169.894 30.0826C172.639 30.0826 173.598 28.8563 173.598 27.1031C173.598 24.8517 172.276 23.932 168.796 22.9068C163.222 21.3165 161.314 19.2567 161.314 15.6736C161.314 11.075 164.888 8.5745 169.475 8.5745C175.254 8.5745 177.692 11.669 177.972 15.6449H173.151C172.853 13.815 171.988 12.4258 169.429 12.4258C167.27 12.4258 166.209 13.4605 166.209 15.1754C166.209 17.0245 167.419 17.5514 170.825 18.5669C176.966 20.4159 178.586 22.9452 178.586 26.4995C178.586 30.5425 175.98 33.9914 169.68 33.9914C164.422 33.9914 161.017 31.2706 160.719 26.3558H165.567L165.558 26.3654Z" fill="white"/>
<path d="M186.923 8.90024V24.6601C186.923 27.4576 187.668 30.0155 191.39 30.0155C195.112 30.0155 195.745 27.5725 195.745 24.6505V8.90024H200.696V24.775C200.696 29.9676 198.555 34.0489 191.288 34.0489C184.02 34.0489 182.01 30.1018 182.01 24.8134V8.90024H186.923Z" fill="white"/>
<path d="M210.709 23.4434V33.6849H205.889V8.90024H215.697C220.238 8.90024 223.486 11.2187 223.486 15.6066C223.486 18.9884 221.755 20.6075 219.745 21.4027C222.127 22.3512 222.993 24.296 222.993 27.3713V28.0132C222.993 30.2072 223.114 32.2957 223.309 33.6849H218.582C218.237 32.6406 218.135 30.9832 218.135 27.927V27.2755C218.135 24.4397 217.13 23.4434 213.985 23.4434H210.709ZM210.709 19.4292H214.375C216.711 19.4292 218.628 18.7873 218.628 16.0473C218.628 13.7575 217.018 12.9144 215.055 12.9144H210.718V19.4387L210.709 19.4292Z" fill="white"/>
<path d="M232.224 27.7929L230.53 33.6753H225.71C226.026 32.7076 232.717 9.99241 233.071 8.89066H239.417L247.15 33.6753H242.004L240.18 27.7929H232.233H232.224ZM239.203 23.6158C237.705 18.5956 236.663 15.0509 236.123 12.7324H236.086C235.5 15.4916 234.411 19.3525 233.155 23.6158H239.213H239.203Z" fill="white"/>
<path d="M250.127 33.6753V8.90024H256.39C263.537 23.999 264.691 26.442 265.063 27.6204H265.128C264.886 24.6792 264.849 20.6267 264.849 16.5838V8.90024H269.325V33.6849H263.314C255.646 17.0724 254.79 15.1084 254.436 14.1695H254.399C254.576 17.3023 254.594 21.5848 254.594 26.0109V33.6849H250.118L250.127 33.6753Z" fill="white"/>
<path d="M293.614 25.8768C292.962 30.0634 290.236 34.0393 284.057 34.0393C276.473 34.0393 273.746 28.3581 273.746 21.2878C273.746 14.2174 277.236 8.5745 284.262 8.5745C290.757 8.5745 293.251 12.8474 293.483 16.6891H288.691C288.207 14.6485 287.407 12.627 284.103 12.627C280.102 12.627 278.79 16.8137 278.79 21.2686C278.79 25.9822 280.055 30.0347 284.159 30.0347C287.379 30.0347 288.337 27.745 288.793 25.896H293.614V25.8768Z" fill="white"/>
<path d="M312.458 22.8685H301.989V29.5365H313.546L312.96 33.6753H297.215V8.90024H312.904V13.0773H301.998V18.6915H312.467V22.8685H312.458Z" fill="white"/>
<path d="M243.188 53.7387C242.482 53.7387 241.85 53.6245 241.29 53.3962C240.729 53.1622 240.253 52.8397 239.861 52.4288C239.475 52.0178 239.178 51.5412 238.971 50.999C238.764 50.4511 238.66 49.8689 238.66 49.2525V48.9101C238.66 48.208 238.758 47.5659 238.954 46.9838C239.15 46.4016 239.43 45.8965 239.794 45.4684C240.164 45.0404 240.612 44.7122 241.138 44.4839C241.665 44.2499 242.258 44.1329 242.919 44.1329C243.563 44.1329 244.135 44.2413 244.633 44.4582C245.131 44.6751 245.549 44.9833 245.885 45.3828C246.226 45.7823 246.484 46.2618 246.657 46.8211C246.831 47.3747 246.918 47.9912 246.918 48.6704V49.6977H239.693V48.0539H244.541V47.8656C244.541 47.5231 244.479 47.2178 244.356 46.9495C244.238 46.6756 244.059 46.4587 243.818 46.2989C243.577 46.1391 243.269 46.0592 242.894 46.0592C242.575 46.0592 242.3 46.1305 242.071 46.2732C241.841 46.4159 241.654 46.6156 241.508 46.8725C241.368 47.1293 241.262 47.4318 241.189 47.78C241.122 48.1224 241.088 48.4991 241.088 48.9101V49.2525C241.088 49.6235 241.138 49.966 241.239 50.2799C241.346 50.5938 241.494 50.8649 241.684 51.0932C241.88 51.3215 242.116 51.4984 242.39 51.624C242.67 51.7496 242.986 51.8124 243.339 51.8124C243.776 51.8124 244.182 51.7267 244.557 51.5555C244.938 51.3786 245.266 51.1132 245.54 50.7593L246.716 52.0606C246.526 52.3403 246.265 52.6086 245.935 52.8654C245.61 53.1222 245.218 53.3334 244.759 53.4989C244.3 53.6587 243.776 53.7387 243.188 53.7387Z" fill="white"/>
<path d="M236.123 53.5674H233.686V43.4822C233.686 42.7801 233.821 42.1894 234.09 41.71C234.364 41.2248 234.748 40.8595 235.241 40.6141C235.739 40.363 236.33 40.2374 237.013 40.2374C237.237 40.2374 237.453 40.2545 237.66 40.2888C237.867 40.3173 238.069 40.3544 238.265 40.4001L238.24 42.2579C238.133 42.2294 238.021 42.2094 237.904 42.198C237.786 42.1866 237.649 42.1808 237.492 42.1808C237.201 42.1808 236.951 42.2322 236.744 42.3349C236.543 42.432 236.389 42.5775 236.282 42.7716C236.176 42.9656 236.123 43.2025 236.123 43.4822V53.5674ZM237.937 44.3041V46.0506H232.334V44.3041H237.937Z" fill="white"/>
<path d="M231.041 44.3041V53.5674H228.613V44.3041H231.041ZM228.462 41.8898C228.462 41.5302 228.585 41.2334 228.832 40.9994C229.078 40.7654 229.408 40.6484 229.823 40.6484C230.232 40.6484 230.559 40.7654 230.806 40.9994C231.058 41.2334 231.184 41.5302 231.184 41.8898C231.184 42.2493 231.058 42.5461 230.806 42.7801C230.559 43.0142 230.232 43.1312 229.823 43.1312C229.408 43.1312 229.078 43.0142 228.832 42.7801C228.585 42.5461 228.462 42.2493 228.462 41.8898Z" fill="white"/>
<path d="M226.487 40.4172V53.5674H224.06V40.4172H226.487Z" fill="white"/>
<path d="M210.249 46.8981L212.601 45.3485C212.948 45.1145 213.18 44.889 213.298 44.6722C213.416 44.4553 213.474 44.2127 213.474 43.9444C213.474 43.6762 213.376 43.4279 213.18 43.1996C212.984 42.9656 212.71 42.8486 212.357 42.8486C212.105 42.8486 211.892 42.9085 211.719 43.0284C211.545 43.1425 211.413 43.2966 211.324 43.4907C211.24 43.6848 211.198 43.9016 211.198 44.1414C211.198 44.3982 211.265 44.6607 211.399 44.929C211.534 45.1915 211.716 45.4712 211.946 45.768C212.175 46.0591 212.43 46.3759 212.71 46.7183L218.481 53.5674H215.734L211.03 48.0196C210.632 47.5174 210.285 47.0579 209.988 46.6413C209.691 46.2189 209.459 45.808 209.291 45.4084C209.123 45.0089 209.039 44.598 209.039 44.1756C209.039 43.5249 209.176 42.957 209.451 42.4719C209.725 41.9811 210.111 41.6015 210.61 41.3332C211.108 41.0593 211.694 40.9223 212.366 40.9223C212.998 40.9223 213.547 41.0564 214.012 41.3247C214.477 41.5872 214.835 41.9354 215.087 42.3692C215.345 42.8029 215.474 43.2795 215.474 43.7989C215.474 44.187 215.404 44.5466 215.264 44.8776C215.124 45.203 214.931 45.5055 214.684 45.7851C214.438 46.0591 214.155 46.3131 213.836 46.5471L211.156 48.4905C210.949 48.6846 210.792 48.8758 210.685 49.0641C210.579 49.2525 210.506 49.4322 210.467 49.6035C210.428 49.769 210.408 49.9288 210.408 50.0829C210.408 50.4139 210.478 50.7107 210.618 50.9733C210.758 51.2358 210.954 51.4413 211.206 51.5897C211.458 51.7381 211.752 51.8123 212.088 51.8123C212.548 51.8123 212.993 51.7096 213.424 51.5041C213.855 51.2986 214.242 51.0047 214.583 50.6223C214.925 50.2342 215.197 49.7747 215.398 49.2439C215.6 48.7131 215.701 48.1281 215.701 47.4888H217.75C217.75 48.1281 217.689 48.7359 217.566 49.3124C217.442 49.8831 217.243 50.4139 216.969 50.9048C216.695 51.3899 216.331 51.8209 215.877 52.1976C215.843 52.2261 215.796 52.2689 215.734 52.326C215.678 52.3773 215.631 52.4173 215.591 52.4458C215.054 52.8853 214.494 53.2135 213.911 53.4304C213.329 53.6416 212.679 53.7471 211.962 53.7471C211.145 53.7471 210.436 53.5959 209.837 53.2934C209.243 52.9909 208.784 52.5742 208.459 52.0434C208.14 51.5126 207.98 50.9048 207.98 50.2199C207.98 49.7176 208.076 49.281 208.266 48.91C208.462 48.5333 208.731 48.1851 209.073 47.8655C209.414 47.5459 209.806 47.2234 210.249 46.8981Z" fill="white"/>
<path d="M202.663 44.3041V46.0506H197.371V44.3041H202.663ZM198.682 42.0182H201.101V50.7764C201.101 51.0447 201.135 51.2502 201.202 51.3929C201.275 51.5355 201.381 51.6354 201.521 51.6925C201.661 51.7439 201.837 51.7696 202.05 51.7696C202.201 51.7696 202.336 51.7638 202.453 51.7524C202.577 51.7353 202.68 51.7182 202.764 51.7011L202.773 53.5161C202.565 53.5846 202.341 53.6388 202.101 53.6787C201.86 53.7187 201.594 53.7387 201.303 53.7387C200.771 53.7387 200.306 53.6502 199.908 53.4733C199.516 53.2906 199.214 52.9995 199.001 52.6C198.788 52.2005 198.682 51.6754 198.682 51.0247V42.0182Z" fill="white"/>
<path d="M194.289 51.0076C194.289 50.8307 194.238 50.6708 194.137 50.5282C194.037 50.3855 193.849 50.2542 193.575 50.1343C193.306 50.0088 192.917 49.8946 192.407 49.7919C191.948 49.6892 191.519 49.5607 191.122 49.4066C190.73 49.2468 190.388 49.0556 190.097 48.833C189.811 48.6104 189.587 48.3479 189.425 48.0454C189.262 47.7372 189.181 47.3862 189.181 46.9923C189.181 46.6042 189.262 46.2389 189.425 45.8965C189.593 45.554 189.831 45.2515 190.139 44.989C190.452 44.7207 190.833 44.5124 191.281 44.364C191.735 44.2099 192.245 44.1329 192.81 44.1329C193.6 44.1329 194.277 44.2613 194.843 44.5181C195.414 44.775 195.851 45.1288 196.154 45.5797C196.462 46.0249 196.616 46.5329 196.616 47.1036H194.196C194.196 46.8639 194.146 46.6499 194.045 46.4615C193.95 46.2675 193.799 46.1162 193.591 46.0078C193.39 45.8936 193.127 45.8366 192.802 45.8366C192.533 45.8366 192.301 45.8851 192.105 45.9821C191.909 46.0734 191.757 46.199 191.651 46.3588C191.55 46.5129 191.5 46.6841 191.5 46.8725C191.5 47.0152 191.528 47.1436 191.584 47.2577C191.645 47.3662 191.743 47.4661 191.878 47.5574C192.012 47.6487 192.186 47.7343 192.399 47.8142C192.617 47.8884 192.886 47.9569 193.205 48.0197C193.86 48.1567 194.445 48.3365 194.961 48.5591C195.476 48.7759 195.885 49.0727 196.187 49.4494C196.49 49.8204 196.641 50.3084 196.641 50.9134C196.641 51.3244 196.551 51.7011 196.372 52.0435C196.193 52.386 195.935 52.6856 195.599 52.9424C195.263 53.1936 194.86 53.3905 194.389 53.5332C193.925 53.6702 193.401 53.7387 192.819 53.7387C191.973 53.7387 191.256 53.5845 190.668 53.2763C190.086 52.9681 189.643 52.5772 189.341 52.1034C189.044 51.624 188.896 51.1332 188.896 50.6309H191.189C191.2 50.9676 191.284 51.2387 191.441 51.4442C191.603 51.6497 191.808 51.7981 192.054 51.8894C192.306 51.9807 192.578 52.0264 192.869 52.0264C193.183 52.0264 193.443 51.9836 193.65 51.898C193.857 51.8066 194.014 51.6868 194.121 51.5384C194.233 51.3843 194.289 51.2074 194.289 51.0076Z" fill="white"/>
<path d="M185.107 51.35V44.3041H187.526V53.5674H185.249L185.107 51.35ZM185.375 49.4494L186.09 49.4323C186.09 50.0487 186.02 50.6223 185.879 51.1531C185.739 51.6782 185.529 52.1348 185.249 52.5229C184.969 52.9053 184.617 53.205 184.191 53.4219C183.765 53.633 183.264 53.7386 182.687 53.7386C182.245 53.7386 181.836 53.6758 181.461 53.5503C181.091 53.419 180.772 53.2164 180.503 52.9424C180.24 52.6628 180.033 52.306 179.882 51.8723C179.736 51.4328 179.663 50.9048 179.663 50.2884V44.3041H182.082V50.3055C182.082 50.5795 182.113 50.8107 182.175 50.999C182.242 51.1874 182.334 51.3415 182.452 51.4613C182.57 51.5812 182.707 51.6668 182.864 51.7182C183.026 51.7695 183.205 51.7952 183.401 51.7952C183.9 51.7952 184.292 51.6925 184.577 51.487C184.869 51.2815 185.073 51.0019 185.191 50.648C185.314 50.2884 185.375 49.8889 185.375 49.4494Z" fill="white"/>
<path d="M175.849 46.3246V53.5674H173.43V44.3041H175.706L175.849 46.3246ZM178.588 44.2442L178.546 46.53C178.428 46.5129 178.285 46.4986 178.117 46.4872C177.955 46.4701 177.806 46.4615 177.672 46.4615C177.33 46.4615 177.034 46.5072 176.782 46.5985C176.535 46.6841 176.328 46.8125 176.16 46.9838C175.997 47.155 175.874 47.3633 175.79 47.6088C175.712 47.8542 175.667 48.1338 175.656 48.4478L175.169 48.2937C175.169 47.6944 175.227 47.1436 175.345 46.6413C175.463 46.1334 175.633 45.691 175.857 45.3143C176.087 44.9376 176.367 44.6465 176.698 44.4411C177.028 44.2356 177.406 44.1329 177.832 44.1329C177.966 44.1329 178.103 44.1443 178.243 44.1671C178.383 44.1842 178.498 44.2099 178.588 44.2442Z" fill="white"/>
<path d="M172.052 44.3041V46.0506H166.76V44.3041H172.052ZM168.07 42.0182H170.49V50.7764C170.49 51.0447 170.523 51.2502 170.59 51.3929C170.663 51.5355 170.77 51.6354 170.91 51.6925C171.05 51.7439 171.226 51.7696 171.439 51.7696C171.59 51.7696 171.724 51.7638 171.842 51.7524C171.965 51.7353 172.069 51.7182 172.153 51.7011L172.161 53.5161C171.954 53.5846 171.73 53.6388 171.489 53.6787C171.248 53.7187 170.982 53.7387 170.691 53.7387C170.159 53.7387 169.694 53.6502 169.297 53.4733C168.905 53.2906 168.602 52.9995 168.389 52.6C168.177 52.2005 168.07 51.6754 168.07 51.0247V42.0182Z" fill="white"/>
<path d="M159.434 46.3246V53.5674H157.015V44.3041H159.291L159.434 46.3246ZM162.173 44.2442L162.131 46.53C162.013 46.5129 161.87 46.4986 161.702 46.4872C161.54 46.4701 161.391 46.4615 161.257 46.4615C160.915 46.4615 160.618 46.5072 160.366 46.5985C160.12 46.6841 159.913 46.8125 159.745 46.9838C159.582 47.155 159.459 47.3633 159.375 47.6088C159.297 47.8542 159.252 48.1338 159.241 48.4478L158.754 48.2937C158.754 47.6944 158.812 47.1436 158.93 46.6413C159.048 46.1334 159.218 45.691 159.442 45.3143C159.672 44.9376 159.952 44.6465 160.282 44.4411C160.613 44.2356 160.991 44.1329 161.417 44.1329C161.551 44.1329 161.688 44.1443 161.828 44.1671C161.968 44.1842 162.083 44.2099 162.173 44.2442Z" fill="white"/>
<path d="M152.748 51.35V44.3041H155.168V53.5674H152.891L152.748 51.35ZM153.017 49.4494L153.731 49.4323C153.731 50.0487 153.661 50.6223 153.521 51.1531C153.381 51.6782 153.171 52.1348 152.891 52.5229C152.611 52.9053 152.258 53.205 151.833 53.4219C151.407 53.633 150.906 53.7386 150.329 53.7386C149.886 53.7386 149.478 53.6758 149.102 53.5503C148.733 53.419 148.414 53.2164 148.145 52.9424C147.882 52.6628 147.674 52.306 147.523 51.8723C147.377 51.4328 147.305 50.9048 147.305 50.2884V44.3041H149.724V50.3055C149.724 50.5795 149.755 50.8107 149.816 50.999C149.884 51.1874 149.976 51.3415 150.094 51.4613C150.211 51.5812 150.348 51.6668 150.505 51.7182C150.668 51.7695 150.847 51.7952 151.043 51.7952C151.541 51.7952 151.933 51.6925 152.219 51.487C152.51 51.2815 152.715 51.0019 152.832 50.648C152.955 50.2884 153.017 49.8889 153.017 49.4494Z" fill="white"/>
<path d="M137.273 49.0299V48.8501C137.273 48.1709 137.369 47.546 137.559 46.9752C137.749 46.3988 138.027 45.8993 138.391 45.477C138.755 45.0546 139.203 44.7264 139.735 44.4924C140.267 44.2527 140.877 44.1329 141.566 44.1329C142.255 44.1329 142.868 44.2527 143.406 44.4924C143.943 44.7264 144.394 45.0546 144.758 45.477C145.128 45.8993 145.408 46.3988 145.598 46.9752C145.789 47.546 145.884 48.1709 145.884 48.8501V49.0299C145.884 49.7034 145.789 50.3284 145.598 50.9049C145.408 51.4756 145.128 51.975 144.758 52.4031C144.394 52.8254 143.946 53.1536 143.414 53.3876C142.882 53.6216 142.272 53.7387 141.583 53.7387C140.894 53.7387 140.281 53.6216 139.743 53.3876C139.211 53.1536 138.76 52.8254 138.391 52.4031C138.027 51.975 137.749 51.4756 137.559 50.9049C137.369 50.3284 137.273 49.7034 137.273 49.0299ZM139.693 48.8501V49.0299C139.693 49.418 139.726 49.7805 139.794 50.1172C139.861 50.454 139.967 50.7508 140.113 51.0076C140.264 51.2587 140.46 51.4556 140.701 51.5983C140.942 51.741 141.236 51.8124 141.583 51.8124C141.919 51.8124 142.207 51.741 142.448 51.5983C142.689 51.4556 142.882 51.2587 143.028 51.0076C143.173 50.7508 143.28 50.454 143.347 50.1172C143.42 49.7805 143.456 49.418 143.456 49.0299V48.8501C143.456 48.4734 143.42 48.1196 143.347 47.7885C143.28 47.4518 143.171 47.155 143.019 46.8982C142.874 46.6356 142.681 46.4301 142.44 46.2817C142.199 46.1334 141.908 46.0592 141.566 46.0592C141.225 46.0592 140.933 46.1334 140.692 46.2817C140.457 46.4301 140.264 46.6356 140.113 46.8982C139.967 47.155 139.861 47.4518 139.794 47.7885C139.726 48.1196 139.693 48.4734 139.693 48.8501Z" fill="white"/>
<path d="M131.822 52.5229L134.233 44.3041H136.828L133.174 54.9629C133.096 55.1969 132.989 55.448 132.855 55.7163C132.726 55.9845 132.55 56.2385 132.326 56.4782C132.107 56.7237 131.83 56.9234 131.494 57.0775C131.164 57.2316 130.758 57.3087 130.276 57.3087C130.046 57.3087 129.859 57.2944 129.713 57.2659C129.567 57.2374 129.394 57.1974 129.192 57.146V55.3396C129.254 55.3396 129.318 55.3396 129.385 55.3396C129.453 55.3453 129.517 55.3482 129.579 55.3482C129.898 55.3482 130.158 55.3111 130.36 55.2369C130.562 55.1627 130.724 55.0485 130.847 54.8944C130.97 54.746 131.068 54.552 131.141 54.3122L131.822 52.5229ZM130.814 44.3041L132.788 51.0161L133.132 53.6273L131.486 53.8071L128.218 44.3041H130.814Z" fill="white"/>
<path d="M119.733 53.7387C119.027 53.7387 118.394 53.6245 117.834 53.3962C117.274 53.1622 116.798 52.8397 116.406 52.4288C116.02 52.0178 115.723 51.5412 115.516 50.999C115.309 50.4511 115.205 49.8689 115.205 49.2525V48.9101C115.205 48.208 115.303 47.5659 115.499 46.9838C115.695 46.4016 115.975 45.8965 116.339 45.4684C116.709 45.0404 117.157 44.7122 117.683 44.4839C118.21 44.2499 118.803 44.1329 119.464 44.1329C120.108 44.1329 120.679 44.2413 121.178 44.4582C121.676 44.6751 122.094 44.9833 122.43 45.3828C122.771 45.7823 123.029 46.2618 123.202 46.8211C123.376 47.3747 123.463 47.9912 123.463 48.6704V49.6977H116.238V48.0539H121.085V47.8656C121.085 47.5231 121.024 47.2178 120.901 46.9495C120.783 46.6756 120.604 46.4587 120.363 46.2989C120.122 46.1391 119.814 46.0592 119.439 46.0592C119.12 46.0592 118.845 46.1305 118.616 46.2732C118.386 46.4159 118.198 46.6156 118.053 46.8725C117.913 47.1293 117.806 47.4318 117.734 47.78C117.666 48.1224 117.633 48.4991 117.633 48.9101V49.2525C117.633 49.6235 117.683 49.966 117.784 50.2799C117.89 50.5938 118.039 50.8649 118.229 51.0932C118.425 51.3215 118.661 51.4984 118.935 51.624C119.215 51.7496 119.531 51.8124 119.884 51.8124C120.321 51.8124 120.727 51.7267 121.102 51.5555C121.483 51.3786 121.811 51.1132 122.085 50.7593L123.261 52.0606C123.071 52.3403 122.81 52.6086 122.48 52.8654C122.155 53.1222 121.763 53.3334 121.304 53.4989C120.845 53.6587 120.321 53.7387 119.733 53.7387Z" fill="white"/>
<path d="M111.836 46.3246V53.5674H109.417V44.3041H111.694L111.836 46.3246ZM114.575 44.2442L114.533 46.53C114.415 46.5129 114.273 46.4986 114.105 46.4872C113.942 46.4701 113.794 46.4615 113.659 46.4615C113.318 46.4615 113.021 46.5072 112.769 46.5985C112.522 46.6841 112.315 46.8125 112.147 46.9838C111.985 47.155 111.862 47.3633 111.778 47.6088C111.699 47.8542 111.654 48.1338 111.643 48.4478L111.156 48.2937C111.156 47.6944 111.215 47.1436 111.332 46.6413C111.45 46.1334 111.621 45.691 111.845 45.3143C112.074 44.9376 112.354 44.6465 112.685 44.4411C113.015 44.2356 113.393 44.1329 113.819 44.1329C113.953 44.1329 114.091 44.1443 114.231 44.1671C114.371 44.1842 114.485 44.2099 114.575 44.2442Z" fill="white"/>
<path d="M105.15 51.35V44.3041H107.569V53.5674H105.292L105.15 51.35ZM105.418 49.4494L106.132 49.4323C106.132 50.0487 106.062 50.6223 105.922 51.1531C105.782 51.6782 105.572 52.1348 105.292 52.5229C105.012 52.9053 104.66 53.205 104.234 53.4219C103.808 53.633 103.307 53.7386 102.73 53.7386C102.288 53.7386 101.879 53.6758 101.504 53.5503C101.134 53.419 100.815 53.2164 100.546 52.9424C100.283 52.6628 100.076 52.306 99.9245 51.8723C99.7789 51.4328 99.7061 50.9048 99.7061 50.2884V44.3041H102.125V50.3055C102.125 50.5795 102.156 50.8107 102.218 50.999C102.285 51.1874 102.377 51.3415 102.495 51.4613C102.613 51.5812 102.75 51.6668 102.907 51.7182C103.069 51.7695 103.248 51.7952 103.444 51.7952C103.943 51.7952 104.335 51.6925 104.62 51.487C104.912 51.2815 105.116 51.0019 105.234 50.648C105.357 50.2884 105.418 49.8889 105.418 49.4494Z" fill="white"/>
<path d="M94.5565 51.8124C94.8533 51.8124 95.1166 51.7553 95.3462 51.6411C95.5758 51.5213 95.755 51.3558 95.8838 51.1446C96.0182 50.9277 96.0882 50.6737 96.0938 50.3826H98.3704C98.3648 51.0333 98.194 51.6126 97.8579 52.1206C97.5219 52.6228 97.0711 53.0195 96.5054 53.3106C95.9398 53.596 95.307 53.7387 94.6069 53.7387C93.9013 53.7387 93.2852 53.6188 92.7588 53.3791C92.238 53.1394 91.8039 52.8083 91.4567 52.386C91.1095 51.9579 90.8491 51.4613 90.6755 50.8963C90.5018 50.3255 90.415 49.7148 90.415 49.0642V48.8159C90.415 48.1595 90.5018 47.5488 90.6755 46.9838C90.8491 46.413 91.1095 45.9165 91.4567 45.4941C91.8039 45.066 92.238 44.7322 92.7588 44.4924C93.2796 44.2527 93.8901 44.1329 94.5901 44.1329C95.335 44.1329 95.9874 44.2784 96.5474 44.5695C97.1131 44.8606 97.5555 45.2772 97.8747 45.8194C98.1996 46.3559 98.3648 46.9923 98.3704 47.7286H96.0938C96.0882 47.4204 96.0238 47.1407 95.9006 46.8896C95.783 46.6385 95.6094 46.4387 95.3798 46.2903C95.1558 46.1362 94.8785 46.0592 94.5481 46.0592C94.1953 46.0592 93.9069 46.1362 93.6829 46.2903C93.4588 46.4387 93.2852 46.6442 93.162 46.9067C93.0388 47.1636 92.952 47.4575 92.9016 47.7885C92.8568 48.1139 92.8344 48.4563 92.8344 48.8159V49.0642C92.8344 49.4237 92.8568 49.7691 92.9016 50.1001C92.9464 50.4311 93.0304 50.7251 93.1536 50.9819C93.2824 51.2387 93.4588 51.4414 93.6829 51.5898C93.9069 51.7382 94.1981 51.8124 94.5565 51.8124Z" fill="white"/>
<path d="M85.6939 53.7387C84.9883 53.7387 84.3554 53.6245 83.7954 53.3962C83.2354 53.1622 82.7593 52.8397 82.3673 52.4288C81.9809 52.0178 81.6841 51.5412 81.4768 50.999C81.2696 50.4511 81.166 49.8689 81.166 49.2525V48.9101C81.166 48.208 81.264 47.5659 81.46 46.9838C81.656 46.4016 81.9361 45.8965 82.3001 45.4684C82.6697 45.0404 83.1177 44.7122 83.6442 44.4839C84.1706 44.2499 84.7643 44.1329 85.4251 44.1329C86.0691 44.1329 86.6404 44.2413 87.1388 44.4582C87.6372 44.6751 88.0545 44.9833 88.3905 45.3828C88.7321 45.7823 88.9897 46.2618 89.1633 46.8211C89.337 47.3747 89.4238 47.9912 89.4238 48.6704V49.6977H82.1993V48.0539H87.0464V47.8656C87.0464 47.5231 86.9848 47.2178 86.8616 46.9495C86.744 46.6756 86.5648 46.4587 86.324 46.2989C86.0831 46.1391 85.7751 46.0592 85.3999 46.0592C85.0807 46.0592 84.8063 46.1305 84.5766 46.2732C84.347 46.4159 84.1594 46.6156 84.0138 46.8725C83.8738 47.1293 83.7674 47.4318 83.6946 47.78C83.6274 48.1224 83.5938 48.4991 83.5938 48.9101V49.2525C83.5938 49.6235 83.6442 49.966 83.745 50.2799C83.8514 50.5938 83.9998 50.8649 84.1902 51.0932C84.3862 51.3215 84.6214 51.4984 84.8959 51.624C85.1759 51.7496 85.4923 51.8124 85.8451 51.8124C86.282 51.8124 86.688 51.7267 87.0632 51.5555C87.444 51.3786 87.7717 51.1132 88.0461 50.7593L89.2222 52.0606C89.0317 52.3403 88.7713 52.6086 88.4409 52.8654C88.1161 53.1222 87.7241 53.3334 87.2648 53.4989C86.8056 53.6587 86.282 53.7387 85.6939 53.7387Z" fill="white"/>
<path d="M77.4279 50.3055C77.4279 50.0829 77.3943 49.8831 77.3271 49.7062C77.2655 49.5236 77.1479 49.358 76.9743 49.2097C76.8007 49.0555 76.5571 48.9043 76.2434 48.7559C75.9298 48.6075 75.5238 48.4534 75.0253 48.2936C74.4709 48.1109 73.9445 47.9055 73.446 47.6772C72.9532 47.4489 72.5164 47.1835 72.1356 46.881C71.7603 46.5728 71.4635 46.216 71.2451 45.8108C71.0323 45.4056 70.9259 44.9347 70.9259 44.3982C70.9259 43.8788 71.0379 43.4079 71.2619 42.9856C71.4859 42.5575 71.7995 42.1922 72.2028 41.8897C72.606 41.5815 73.082 41.3447 73.6309 41.1791C74.1853 41.0136 74.7929 40.9309 75.4538 40.9309C76.3554 40.9309 77.1423 41.0964 77.8143 41.4274C78.4864 41.7585 79.0072 42.2122 79.3768 42.7887C79.7521 43.3651 79.9397 44.0244 79.9397 44.7663H77.4363C77.4363 44.401 77.3607 44.0814 77.2095 43.8075C77.0639 43.5278 76.8399 43.3081 76.5375 43.1482C76.2406 42.9884 75.8654 42.9085 75.4118 42.9085C74.9749 42.9085 74.6109 42.977 74.3197 43.114C74.0285 43.2453 73.8101 43.4251 73.6645 43.6534C73.5188 43.876 73.446 44.1271 73.446 44.4068C73.446 44.6179 73.4964 44.8091 73.5973 44.9804C73.7037 45.1516 73.8605 45.3114 74.0677 45.4598C74.2749 45.6082 74.5297 45.748 74.8321 45.8793C75.1346 46.0106 75.4846 46.139 75.8822 46.2646C76.5487 46.47 77.1339 46.7012 77.6379 46.958C78.1476 47.2149 78.5732 47.5031 78.9148 47.8227C79.2564 48.1423 79.514 48.5048 79.6877 48.91C79.8613 49.3152 79.9481 49.7747 79.9481 50.2884C79.9481 50.8306 79.8445 51.3157 79.6373 51.7438C79.43 52.1719 79.1304 52.5343 78.7384 52.8311C78.3464 53.1279 77.8787 53.3533 77.3355 53.5074C76.7923 53.6615 76.1846 53.7386 75.5126 53.7386C74.9077 53.7386 74.3113 53.6587 73.7233 53.4989C73.1352 53.3334 72.6004 53.0851 72.1188 52.754C71.6427 52.423 71.2619 52.0006 70.9763 51.487C70.6907 50.9733 70.5479 50.3654 70.5479 49.6634H73.0764C73.0764 50.0515 73.1352 50.3797 73.2528 50.648C73.3704 50.9162 73.5357 51.1331 73.7485 51.2986C73.9669 51.4641 74.2245 51.584 74.5213 51.6582C74.8237 51.7324 75.1542 51.7695 75.5126 51.7695C75.9494 51.7695 76.3078 51.7067 76.5879 51.5811C76.8735 51.4556 77.0835 51.2815 77.2179 51.0589C77.3579 50.8363 77.4279 50.5852 77.4279 50.3055Z" fill="white"/>
<path d="M345.081 33.3224C345.081 32.9331 345.212 32.6076 345.475 32.3459C345.744 32.0843 346.099 31.9535 346.541 31.9535C346.982 31.9535 347.335 32.0843 347.597 32.3459C347.866 32.6076 348 32.9331 348 33.3224C348 33.7118 347.866 34.0373 347.597 34.299C347.335 34.5606 346.982 34.6914 346.541 34.6914C346.099 34.6914 345.744 34.5606 345.475 34.299C345.212 34.0373 345.081 33.7118 345.081 33.3224Z" fill="white"/>
<path d="M339.395 32.7201C339.712 32.7201 339.992 32.6592 340.237 32.5375C340.482 32.4098 340.673 32.2333 340.81 32.0082C340.953 31.777 341.028 31.5063 341.034 31.196H343.461C343.455 31.8896 343.273 32.5071 342.915 33.0486C342.556 33.584 342.076 34.0069 341.473 34.3172C340.87 34.6214 340.195 34.7735 339.449 34.7735C338.697 34.7735 338.04 34.6457 337.479 34.3902C336.924 34.1347 336.461 33.7818 336.091 33.3315C335.721 32.8752 335.443 32.3459 335.258 31.7436C335.073 31.1351 334.98 30.4841 334.98 29.7905V29.5259C334.98 28.8262 335.073 28.1752 335.258 27.5728C335.443 26.9644 335.721 26.4351 336.091 25.9848C336.461 25.5285 336.924 25.1726 337.479 24.9171C338.034 24.6615 338.685 24.5338 339.431 24.5338C340.225 24.5338 340.921 24.6889 341.518 24.9992C342.121 25.3095 342.592 25.7536 342.932 26.3316C343.279 26.9036 343.455 27.582 343.461 28.3668H341.034C341.028 28.0383 340.959 27.7401 340.828 27.4724C340.703 27.2047 340.518 26.9918 340.273 26.8336C340.034 26.6693 339.739 26.5872 339.386 26.5872C339.01 26.5872 338.703 26.6693 338.464 26.8336C338.225 26.9918 338.04 27.2108 337.909 27.4907C337.777 27.7645 337.685 28.0778 337.631 28.4307C337.583 28.7775 337.559 29.1426 337.559 29.5259V29.7905C337.559 30.1738 337.583 30.5419 337.631 30.8948C337.679 31.2477 337.768 31.561 337.9 31.8348C338.037 32.1086 338.225 32.3246 338.464 32.4828C338.703 32.641 339.013 32.7201 339.395 32.7201Z" fill="white"/>
<path d="M327.638 26.8245V34.591H325.059V24.7163H327.476L327.638 26.8245ZM327.262 29.3068H326.563C326.563 28.5767 326.656 27.9196 326.841 27.3355C327.026 26.7454 327.285 26.2434 327.62 25.8297C327.954 25.4099 328.351 25.0905 328.811 24.8714C329.276 24.6463 329.796 24.5338 330.369 24.5338C330.823 24.5338 331.238 24.6007 331.614 24.7345C331.99 24.8684 332.312 25.0813 332.581 25.3734C332.855 25.6654 333.064 26.0518 333.208 26.5324C333.357 27.0131 333.431 27.6002 333.431 28.2938V34.591H330.835V28.2847C330.835 27.8466 330.775 27.5059 330.655 27.2625C330.536 27.0192 330.36 26.8488 330.127 26.7515C329.9 26.648 329.62 26.5963 329.285 26.5963C328.939 26.5963 328.638 26.6663 328.381 26.8062C328.13 26.9462 327.921 27.1408 327.754 27.3903C327.593 27.6337 327.47 27.9196 327.387 28.2482C327.303 28.5767 327.262 28.9296 327.262 29.3068Z" fill="white"/>
<path d="M322.757 21.3031V34.591H320.079V21.3031H322.757Z" fill="white"/>
</svg>
